<svg height="32pt" viewBox="-20 0 512 512" width="32pt" xmlns="http://www.w3.org/2000/svg" xmlns:xlink="http://www.w3.org/1999/xlink"><linearGradient id="a" gradientUnits="userSpaceOnUse" x1="236" x2="236" y1="0" y2="512"><stop offset="0" stop-color="#2af598"/><stop offset="1" stop-color="#009efd"/></linearGradient><path d="m250.472656 181.195312-14.472656-15.171874-14.472656 15.171874c-.539063.566407-13.371094 14.054688-26.359375 30.886719-26.144531 33.875-29.167969 50.507813-29.167969 60.074219v1.445312c0 37.164063 31.402344 67.398438 70 67.398438s70-30.234375 70-67.398438v-1.445312c0-9.5625-3.023438-26.199219-29.167969-60.074219-12.988281-16.832031-25.820312-30.320312-26.359375-30.886719zm15.527344 92.40625c0 15.109376-13.457031 27.398438-30 27.398438s-30-12.289062-30-27.398438v-1.414062c.003906-.089844.585938-9.472656 20.980469-35.859375 3.070312-3.96875 6.148437-7.753906 9.019531-11.175781 2.871094 3.421875 5.949219 7.207031 9.019531 11.175781 20.152344 26.074219 20.960938 35.542969 20.980469 35.855469zm206-17.601562c0-26.074219-16.71875-48.316406-40-56.574219v-82.851562c23.28125-8.253907 40-30.5 40-56.574219 0-33.085938-26.914062-60-60-60h-352c-33.085938 0-60 26.914062-60 60 0 26.074219 16.71875 48.316406 40 56.574219v82.851562c-23.28125 8.257813-40 30.5-40 56.574219s16.71875 48.316406 40 56.574219v82.851562c-23.28125 8.257813-40 30.5-40 56.574219 0 33.085938 26.914062 60 60 60h352c33.085938 0 60-26.914062 60-60 0-26.074219-16.71875-48.316406-40-56.574219v-82.851562c23.28125-8.257813 40-30.5 40-56.574219zm-60 20h-20v116h-273v40h293c11.027344 0 20 8.972656 20 20s-8.972656 20-20 20h-352c-11.027344 0-20-8.972656-20-20s8.972656-20 20-20h20v-156h-20c-11.027344 0-20-8.972656-20-20s8.972656-20 20-20h20v-156h-20c-11.027344 0-20-8.972656-20-20s8.972656-20 20-20h352c11.027344 0 20 8.972656 20 20s-8.972656 20-20 20h-293v40h273v116h20c11.027344 0 20 8.972656 20 20s-8.972656 20-20 20zm0 0" fill="url(#a)"/></svg>