<svg height="32pt" viewBox="0 -39 512 512" width="32pt" xmlns="http://www.w3.org/2000/svg" xmlns:xlink="http://www.w3.org/1999/xlink"><linearGradient id="linear0" gradientUnits="userSpaceOnUse" x1="256" x2="256" y1="0" y2="434"><stop offset="0" stop-color="#2af598"/><stop offset="1" stop-color="#009efd"/></linearGradient><path d="m452 40h-30v-40h-100v40h-132v-40h-100v40h-30c-33.085938 0-60 26.914062-60 60v274c0 33.085938 26.914062 60 60 60h392c33.085938 0 60-26.914062 60-60v-274c0-33.085938-26.914062-60-60-60zm20 334c0 11.027344-8.972656 20-20 20h-392c-11.027344 0-20-8.972656-20-20v-274c0-11.027344 8.972656-20 20-20h392c11.027344 0 20 8.972656 20 20zm-227.351562-155h81.953124l-53.601562 113-35 20v-38l26.648438-55h-79.648438l52-127h43.703125zm0 0" fill="url(#linear0)"/></svg>