<svg xmlns="http://www.w3.org/2000/svg" viewBox="0 0 2300 1400" preserveAspectRatio="xMidYMid" width="2300" height="1400" style="shape-rendering: auto; display: block; background: rgb(122, 206, 255);" xmlns:xlink="http://www.w3.org/1999/xlink"><g><g transform="translate(-100 579.6143794142507) rotate(0)">
  <animateTransform begin="-0.47655216111672005s" repeatCount="indefinite" dur="333.3333333333333s" values="-100 579.6143794142507;2300 579.6143794142507" keyTimes="0;1" type="translate" attributeName="transform"></animateTransform>
  <path transform="scale(0.4375)" fill="#bddeff" d="M84.717,33.597c0.791-2.503,1.186-5.138,1.186-7.773C85.903,11.594,74.308,0,60.079,0 c-9.881,0-18.445,5.534-22.793,13.702c-1.581-0.527-3.426-0.791-5.138-0.791c-9.486,0-17.128,7.642-17.128,17.128 c0,1.186,0.132,2.372,0.395,3.426C6.719,34.783,0,42.424,0,51.515C0,61.66,8.169,69.829,18.314,69.829h63.373 C91.831,69.829,100,61.66,100,51.515C99.868,42.556,93.281,35.046,84.717,33.597z"></path>
</g><g transform="translate(-100 628.004875954659) rotate(0)">
  <animateTransform begin="-22.778316145232576s" repeatCount="indefinite" dur="333.3333333333333s" values="-100 628.004875954659;2300 628.004875954659" keyTimes="0;1" type="translate" attributeName="transform"></animateTransform>
  <path transform="scale(0.4375)" fill="#bddeff" d="M84.717,33.597c0.791-2.503,1.186-5.138,1.186-7.773C85.903,11.594,74.308,0,60.079,0 c-9.881,0-18.445,5.534-22.793,13.702c-1.581-0.527-3.426-0.791-5.138-0.791c-9.486,0-17.128,7.642-17.128,17.128 c0,1.186,0.132,2.372,0.395,3.426C6.719,34.783,0,42.424,0,51.515C0,61.66,8.169,69.829,18.314,69.829h63.373 C91.831,69.829,100,61.66,100,51.515C99.868,42.556,93.281,35.046,84.717,33.597z"></path>
</g><g transform="translate(-100 1065.732738362956) rotate(0)">
  <animateTransform begin="-295.7713925256873s" repeatCount="indefinite" dur="333.3333333333333s" values="-100 1065.732738362956;2300 1065.732738362956" keyTimes="0;1" type="translate" attributeName="transform"></animateTransform>
  <path transform="scale(0.4375)" fill="#bddeff" d="M84.717,33.597c0.791-2.503,1.186-5.138,1.186-7.773C85.903,11.594,74.308,0,60.079,0 c-9.881,0-18.445,5.534-22.793,13.702c-1.581-0.527-3.426-0.791-5.138-0.791c-9.486,0-17.128,7.642-17.128,17.128 c0,1.186,0.132,2.372,0.395,3.426C6.719,34.783,0,42.424,0,51.515C0,61.66,8.169,69.829,18.314,69.829h63.373 C91.831,69.829,100,61.66,100,51.515C99.868,42.556,93.281,35.046,84.717,33.597z"></path>
</g><g transform="translate(-100 565.8873311564681) rotate(0)">
  <animateTransform begin="-319.27011535937174s" repeatCount="indefinite" dur="333.3333333333333s" values="-100 565.8873311564681;2300 565.8873311564681" keyTimes="0;1" type="translate" attributeName="transform"></animateTransform>
  <path transform="scale(0.4375)" fill="#bddeff" d="M84.717,33.597c0.791-2.503,1.186-5.138,1.186-7.773C85.903,11.594,74.308,0,60.079,0 c-9.881,0-18.445,5.534-22.793,13.702c-1.581-0.527-3.426-0.791-5.138-0.791c-9.486,0-17.128,7.642-17.128,17.128 c0,1.186,0.132,2.372,0.395,3.426C6.719,34.783,0,42.424,0,51.515C0,61.66,8.169,69.829,18.314,69.829h63.373 C91.831,69.829,100,61.66,100,51.515C99.868,42.556,93.281,35.046,84.717,33.597z"></path>
</g><g transform="translate(-100 212.95787787733852) rotate(0)">
  <animateTransform begin="-254.30044453593757s" repeatCount="indefinite" dur="333.3333333333333s" values="-100 212.95787787733852;2300 212.95787787733852" keyTimes="0;1" type="translate" attributeName="transform"></animateTransform>
  <path transform="scale(0.4375)" fill="#bddeff" d="M84.717,33.597c0.791-2.503,1.186-5.138,1.186-7.773C85.903,11.594,74.308,0,60.079,0 c-9.881,0-18.445,5.534-22.793,13.702c-1.581-0.527-3.426-0.791-5.138-0.791c-9.486,0-17.128,7.642-17.128,17.128 c0,1.186,0.132,2.372,0.395,3.426C6.719,34.783,0,42.424,0,51.515C0,61.66,8.169,69.829,18.314,69.829h63.373 C91.831,69.829,100,61.66,100,51.515C99.868,42.556,93.281,35.046,84.717,33.597z"></path>
</g><g transform="translate(-100 783.2187714275241) rotate(0)">
  <animateTransform begin="-176.2295221966213s" repeatCount="indefinite" dur="333.3333333333333s" values="-100 783.2187714275241;2300 783.2187714275241" keyTimes="0;1" type="translate" attributeName="transform"></animateTransform>
  <path transform="scale(0.4375)" fill="#bddeff" d="M84.717,33.597c0.791-2.503,1.186-5.138,1.186-7.773C85.903,11.594,74.308,0,60.079,0 c-9.881,0-18.445,5.534-22.793,13.702c-1.581-0.527-3.426-0.791-5.138-0.791c-9.486,0-17.128,7.642-17.128,17.128 c0,1.186,0.132,2.372,0.395,3.426C6.719,34.783,0,42.424,0,51.515C0,61.66,8.169,69.829,18.314,69.829h63.373 C91.831,69.829,100,61.66,100,51.515C99.868,42.556,93.281,35.046,84.717,33.597z"></path>
</g><g transform="translate(-100 1294.0766576076635) rotate(0)">
  <animateTransform begin="-73.2655151723491s" repeatCount="indefinite" dur="333.3333333333333s" values="-100 1294.0766576076635;2300 1294.0766576076635" keyTimes="0;1" type="translate" attributeName="transform"></animateTransform>
  <path transform="scale(0.4375)" fill="#bddeff" d="M84.717,33.597c0.791-2.503,1.186-5.138,1.186-7.773C85.903,11.594,74.308,0,60.079,0 c-9.881,0-18.445,5.534-22.793,13.702c-1.581-0.527-3.426-0.791-5.138-0.791c-9.486,0-17.128,7.642-17.128,17.128 c0,1.186,0.132,2.372,0.395,3.426C6.719,34.783,0,42.424,0,51.515C0,61.66,8.169,69.829,18.314,69.829h63.373 C91.831,69.829,100,61.66,100,51.515C99.868,42.556,93.281,35.046,84.717,33.597z"></path>
</g><g transform="translate(-100 859.3419811884602) rotate(0)">
  <animateTransform begin="-252.56536909594038s" repeatCount="indefinite" dur="333.3333333333333s" values="-100 859.3419811884602;2300 859.3419811884602" keyTimes="0;1" type="translate" attributeName="transform"></animateTransform>
  <path transform="scale(0.4375)" fill="#bddeff" d="M84.717,33.597c0.791-2.503,1.186-5.138,1.186-7.773C85.903,11.594,74.308,0,60.079,0 c-9.881,0-18.445,5.534-22.793,13.702c-1.581-0.527-3.426-0.791-5.138-0.791c-9.486,0-17.128,7.642-17.128,17.128 c0,1.186,0.132,2.372,0.395,3.426C6.719,34.783,0,42.424,0,51.515C0,61.66,8.169,69.829,18.314,69.829h63.373 C91.831,69.829,100,61.66,100,51.515C99.868,42.556,93.281,35.046,84.717,33.597z"></path>
</g><g transform="translate(-100 407.3695142432124) rotate(0)">
  <animateTransform begin="-73.05659231856772s" repeatCount="indefinite" dur="333.3333333333333s" values="-100 407.3695142432124;2300 407.3695142432124" keyTimes="0;1" type="translate" attributeName="transform"></animateTransform>
  <path transform="scale(0.4375)" fill="#bddeff" d="M84.717,33.597c0.791-2.503,1.186-5.138,1.186-7.773C85.903,11.594,74.308,0,60.079,0 c-9.881,0-18.445,5.534-22.793,13.702c-1.581-0.527-3.426-0.791-5.138-0.791c-9.486,0-17.128,7.642-17.128,17.128 c0,1.186,0.132,2.372,0.395,3.426C6.719,34.783,0,42.424,0,51.515C0,61.66,8.169,69.829,18.314,69.829h63.373 C91.831,69.829,100,61.66,100,51.515C99.868,42.556,93.281,35.046,84.717,33.597z"></path>
</g><g transform="translate(-100 651.5868985957067) rotate(0)">
  <animateTransform begin="-100.65025920860651s" repeatCount="indefinite" dur="333.3333333333333s" values="-100 651.5868985957067;2300 651.5868985957067" keyTimes="0;1" type="translate" attributeName="transform"></animateTransform>
  <path transform="scale(0.4375)" fill="#bddeff" d="M84.717,33.597c0.791-2.503,1.186-5.138,1.186-7.773C85.903,11.594,74.308,0,60.079,0 c-9.881,0-18.445,5.534-22.793,13.702c-1.581-0.527-3.426-0.791-5.138-0.791c-9.486,0-17.128,7.642-17.128,17.128 c0,1.186,0.132,2.372,0.395,3.426C6.719,34.783,0,42.424,0,51.515C0,61.66,8.169,69.829,18.314,69.829h63.373 C91.831,69.829,100,61.66,100,51.515C99.868,42.556,93.281,35.046,84.717,33.597z"></path>
</g><g transform="translate(-100 136.39317395669153) rotate(0)">
  <animateTransform begin="-280.0284790184672s" repeatCount="indefinite" dur="333.3333333333333s" values="-100 136.39317395669153;2300 136.39317395669153" keyTimes="0;1" type="translate" attributeName="transform"></animateTransform>
  <path transform="scale(0.4375)" fill="#bddeff" d="M84.717,33.597c0.791-2.503,1.186-5.138,1.186-7.773C85.903,11.594,74.308,0,60.079,0 c-9.881,0-18.445,5.534-22.793,13.702c-1.581-0.527-3.426-0.791-5.138-0.791c-9.486,0-17.128,7.642-17.128,17.128 c0,1.186,0.132,2.372,0.395,3.426C6.719,34.783,0,42.424,0,51.515C0,61.66,8.169,69.829,18.314,69.829h63.373 C91.831,69.829,100,61.66,100,51.515C99.868,42.556,93.281,35.046,84.717,33.597z"></path>
</g><g transform="translate(-100 408.593471120855) rotate(0)">
  <animateTransform begin="-57.44967558562514s" repeatCount="indefinite" dur="333.3333333333333s" values="-100 408.593471120855;2300 408.593471120855" keyTimes="0;1" type="translate" attributeName="transform"></animateTransform>
  <path transform="scale(0.4375)" fill="#bddeff" d="M84.717,33.597c0.791-2.503,1.186-5.138,1.186-7.773C85.903,11.594,74.308,0,60.079,0 c-9.881,0-18.445,5.534-22.793,13.702c-1.581-0.527-3.426-0.791-5.138-0.791c-9.486,0-17.128,7.642-17.128,17.128 c0,1.186,0.132,2.372,0.395,3.426C6.719,34.783,0,42.424,0,51.515C0,61.66,8.169,69.829,18.314,69.829h63.373 C91.831,69.829,100,61.66,100,51.515C99.868,42.556,93.281,35.046,84.717,33.597z"></path>
</g><g transform="translate(-100 320.9202376087755) rotate(0)">
  <animateTransform begin="-38.982662932090015s" repeatCount="indefinite" dur="333.3333333333333s" values="-100 320.9202376087755;2300 320.9202376087755" keyTimes="0;1" type="translate" attributeName="transform"></animateTransform>
  <path transform="scale(0.4375)" fill="#bddeff" d="M84.717,33.597c0.791-2.503,1.186-5.138,1.186-7.773C85.903,11.594,74.308,0,60.079,0 c-9.881,0-18.445,5.534-22.793,13.702c-1.581-0.527-3.426-0.791-5.138-0.791c-9.486,0-17.128,7.642-17.128,17.128 c0,1.186,0.132,2.372,0.395,3.426C6.719,34.783,0,42.424,0,51.515C0,61.66,8.169,69.829,18.314,69.829h63.373 C91.831,69.829,100,61.66,100,51.515C99.868,42.556,93.281,35.046,84.717,33.597z"></path>
</g><g transform="translate(-100 451.4782823014595) rotate(0)">
  <animateTransform begin="-226.4859997641396s" repeatCount="indefinite" dur="333.3333333333333s" values="-100 451.4782823014595;2300 451.4782823014595" keyTimes="0;1" type="translate" attributeName="transform"></animateTransform>
  <path transform="scale(0.4375)" fill="#bddeff" d="M84.717,33.597c0.791-2.503,1.186-5.138,1.186-7.773C85.903,11.594,74.308,0,60.079,0 c-9.881,0-18.445,5.534-22.793,13.702c-1.581-0.527-3.426-0.791-5.138-0.791c-9.486,0-17.128,7.642-17.128,17.128 c0,1.186,0.132,2.372,0.395,3.426C6.719,34.783,0,42.424,0,51.515C0,61.66,8.169,69.829,18.314,69.829h63.373 C91.831,69.829,100,61.66,100,51.515C99.868,42.556,93.281,35.046,84.717,33.597z"></path>
</g><g transform="translate(-100 302.8313206307891) rotate(0)">
  <animateTransform begin="-27.88474912025936s" repeatCount="indefinite" dur="333.3333333333333s" values="-100 302.8313206307891;2300 302.8313206307891" keyTimes="0;1" type="translate" attributeName="transform"></animateTransform>
  <path transform="scale(0.4375)" fill="#bddeff" d="M84.717,33.597c0.791-2.503,1.186-5.138,1.186-7.773C85.903,11.594,74.308,0,60.079,0 c-9.881,0-18.445,5.534-22.793,13.702c-1.581-0.527-3.426-0.791-5.138-0.791c-9.486,0-17.128,7.642-17.128,17.128 c0,1.186,0.132,2.372,0.395,3.426C6.719,34.783,0,42.424,0,51.515C0,61.66,8.169,69.829,18.314,69.829h63.373 C91.831,69.829,100,61.66,100,51.515C99.868,42.556,93.281,35.046,84.717,33.597z"></path>
</g><g transform="translate(-100 127.12929191701333) rotate(0)">
  <animateTransform begin="-264.3113171502554s" repeatCount="indefinite" dur="333.3333333333333s" values="-100 127.12929191701333;2300 127.12929191701333" keyTimes="0;1" type="translate" attributeName="transform"></animateTransform>
  <path transform="scale(0.4375)" fill="#bddeff" d="M84.717,33.597c0.791-2.503,1.186-5.138,1.186-7.773C85.903,11.594,74.308,0,60.079,0 c-9.881,0-18.445,5.534-22.793,13.702c-1.581-0.527-3.426-0.791-5.138-0.791c-9.486,0-17.128,7.642-17.128,17.128 c0,1.186,0.132,2.372,0.395,3.426C6.719,34.783,0,42.424,0,51.515C0,61.66,8.169,69.829,18.314,69.829h63.373 C91.831,69.829,100,61.66,100,51.515C99.868,42.556,93.281,35.046,84.717,33.597z"></path>
</g><g transform="translate(-100 882.2524339373595) rotate(0)">
  <animateTransform begin="-239.8369278977533s" repeatCount="indefinite" dur="333.3333333333333s" values="-100 882.2524339373595;2300 882.2524339373595" keyTimes="0;1" type="translate" attributeName="transform"></animateTransform>
  <path transform="scale(0.4375)" fill="#bddeff" d="M84.717,33.597c0.791-2.503,1.186-5.138,1.186-7.773C85.903,11.594,74.308,0,60.079,0 c-9.881,0-18.445,5.534-22.793,13.702c-1.581-0.527-3.426-0.791-5.138-0.791c-9.486,0-17.128,7.642-17.128,17.128 c0,1.186,0.132,2.372,0.395,3.426C6.719,34.783,0,42.424,0,51.515C0,61.66,8.169,69.829,18.314,69.829h63.373 C91.831,69.829,100,61.66,100,51.515C99.868,42.556,93.281,35.046,84.717,33.597z"></path>
</g><g transform="translate(-100 1242.0627532832507) rotate(0)">
  <animateTransform begin="-98.61523391761094s" repeatCount="indefinite" dur="333.3333333333333s" values="-100 1242.0627532832507;2300 1242.0627532832507" keyTimes="0;1" type="translate" attributeName="transform"></animateTransform>
  <path transform="scale(0.4375)" fill="#bddeff" d="M84.717,33.597c0.791-2.503,1.186-5.138,1.186-7.773C85.903,11.594,74.308,0,60.079,0 c-9.881,0-18.445,5.534-22.793,13.702c-1.581-0.527-3.426-0.791-5.138-0.791c-9.486,0-17.128,7.642-17.128,17.128 c0,1.186,0.132,2.372,0.395,3.426C6.719,34.783,0,42.424,0,51.515C0,61.66,8.169,69.829,18.314,69.829h63.373 C91.831,69.829,100,61.66,100,51.515C99.868,42.556,93.281,35.046,84.717,33.597z"></path>
</g><g transform="translate(-100 934.9629131570728) rotate(0)">
  <animateTransform begin="-101.26157356190258s" repeatCount="indefinite" dur="333.3333333333333s" values="-100 934.9629131570728;2300 934.9629131570728" keyTimes="0;1" type="translate" attributeName="transform"></animateTransform>
  <path transform="scale(0.4375)" fill="#bddeff" d="M84.717,33.597c0.791-2.503,1.186-5.138,1.186-7.773C85.903,11.594,74.308,0,60.079,0 c-9.881,0-18.445,5.534-22.793,13.702c-1.581-0.527-3.426-0.791-5.138-0.791c-9.486,0-17.128,7.642-17.128,17.128 c0,1.186,0.132,2.372,0.395,3.426C6.719,34.783,0,42.424,0,51.515C0,61.66,8.169,69.829,18.314,69.829h63.373 C91.831,69.829,100,61.66,100,51.515C99.868,42.556,93.281,35.046,84.717,33.597z"></path>
</g><g transform="translate(-100 1174.2931905382745) rotate(0)">
  <animateTransform begin="-156.6179013070922s" repeatCount="indefinite" dur="333.3333333333333s" values="-100 1174.2931905382745;2300 1174.2931905382745" keyTimes="0;1" type="translate" attributeName="transform"></animateTransform>
  <path transform="scale(0.4375)" fill="#bddeff" d="M84.717,33.597c0.791-2.503,1.186-5.138,1.186-7.773C85.903,11.594,74.308,0,60.079,0 c-9.881,0-18.445,5.534-22.793,13.702c-1.581-0.527-3.426-0.791-5.138-0.791c-9.486,0-17.128,7.642-17.128,17.128 c0,1.186,0.132,2.372,0.395,3.426C6.719,34.783,0,42.424,0,51.515C0,61.66,8.169,69.829,18.314,69.829h63.373 C91.831,69.829,100,61.66,100,51.515C99.868,42.556,93.281,35.046,84.717,33.597z"></path>
</g><g transform="translate(-100 1378.3911568775861) rotate(0)">
  <animateTransform begin="-248.36437356503734s" repeatCount="indefinite" dur="166.66666666666666s" values="-100 1378.3911568775861;2300 1378.3911568775861" keyTimes="0;1" type="translate" attributeName="transform"></animateTransform>
  <path transform="scale(0.625)" fill="#ffffff" d="M84.717,33.597c0.791-2.503,1.186-5.138,1.186-7.773C85.903,11.594,74.308,0,60.079,0 c-9.881,0-18.445,5.534-22.793,13.702c-1.581-0.527-3.426-0.791-5.138-0.791c-9.486,0-17.128,7.642-17.128,17.128 c0,1.186,0.132,2.372,0.395,3.426C6.719,34.783,0,42.424,0,51.515C0,61.66,8.169,69.829,18.314,69.829h63.373 C91.831,69.829,100,61.66,100,51.515C99.868,42.556,93.281,35.046,84.717,33.597z"></path>
</g><g transform="translate(-100 607.6046627541886) rotate(0)">
  <animateTransform begin="-98.96946371389924s" repeatCount="indefinite" dur="166.66666666666666s" values="-100 607.6046627541886;2300 607.6046627541886" keyTimes="0;1" type="translate" attributeName="transform"></animateTransform>
  <path transform="scale(0.625)" fill="#ffffff" d="M84.717,33.597c0.791-2.503,1.186-5.138,1.186-7.773C85.903,11.594,74.308,0,60.079,0 c-9.881,0-18.445,5.534-22.793,13.702c-1.581-0.527-3.426-0.791-5.138-0.791c-9.486,0-17.128,7.642-17.128,17.128 c0,1.186,0.132,2.372,0.395,3.426C6.719,34.783,0,42.424,0,51.515C0,61.66,8.169,69.829,18.314,69.829h63.373 C91.831,69.829,100,61.66,100,51.515C99.868,42.556,93.281,35.046,84.717,33.597z"></path>
</g><g transform="translate(-100 1241.5006720146441) rotate(0)">
  <animateTransform begin="-81.88023289524448s" repeatCount="indefinite" dur="166.66666666666666s" values="-100 1241.5006720146441;2300 1241.5006720146441" keyTimes="0;1" type="translate" attributeName="transform"></animateTransform>
  <path transform="scale(0.625)" fill="#ffffff" d="M84.717,33.597c0.791-2.503,1.186-5.138,1.186-7.773C85.903,11.594,74.308,0,60.079,0 c-9.881,0-18.445,5.534-22.793,13.702c-1.581-0.527-3.426-0.791-5.138-0.791c-9.486,0-17.128,7.642-17.128,17.128 c0,1.186,0.132,2.372,0.395,3.426C6.719,34.783,0,42.424,0,51.515C0,61.66,8.169,69.829,18.314,69.829h63.373 C91.831,69.829,100,61.66,100,51.515C99.868,42.556,93.281,35.046,84.717,33.597z"></path>
</g><g transform="translate(-100 311.42609026163876) rotate(0)">
  <animateTransform begin="-315.17215549240876s" repeatCount="indefinite" dur="166.66666666666666s" values="-100 311.42609026163876;2300 311.42609026163876" keyTimes="0;1" type="translate" attributeName="transform"></animateTransform>
  <path transform="scale(0.625)" fill="#ffffff" d="M84.717,33.597c0.791-2.503,1.186-5.138,1.186-7.773C85.903,11.594,74.308,0,60.079,0 c-9.881,0-18.445,5.534-22.793,13.702c-1.581-0.527-3.426-0.791-5.138-0.791c-9.486,0-17.128,7.642-17.128,17.128 c0,1.186,0.132,2.372,0.395,3.426C6.719,34.783,0,42.424,0,51.515C0,61.66,8.169,69.829,18.314,69.829h63.373 C91.831,69.829,100,61.66,100,51.515C99.868,42.556,93.281,35.046,84.717,33.597z"></path>
</g><g transform="translate(-100 1304.348297801034) rotate(0)">
  <animateTransform begin="-143.34183130108906s" repeatCount="indefinite" dur="166.66666666666666s" values="-100 1304.348297801034;2300 1304.348297801034" keyTimes="0;1" type="translate" attributeName="transform"></animateTransform>
  <path transform="scale(0.625)" fill="#ffffff" d="M84.717,33.597c0.791-2.503,1.186-5.138,1.186-7.773C85.903,11.594,74.308,0,60.079,0 c-9.881,0-18.445,5.534-22.793,13.702c-1.581-0.527-3.426-0.791-5.138-0.791c-9.486,0-17.128,7.642-17.128,17.128 c0,1.186,0.132,2.372,0.395,3.426C6.719,34.783,0,42.424,0,51.515C0,61.66,8.169,69.829,18.314,69.829h63.373 C91.831,69.829,100,61.66,100,51.515C99.868,42.556,93.281,35.046,84.717,33.597z"></path>
</g><g transform="translate(-100 296.75248540408194) rotate(0)">
  <animateTransform begin="-292.725973822768s" repeatCount="indefinite" dur="166.66666666666666s" values="-100 296.75248540408194;2300 296.75248540408194" keyTimes="0;1" type="translate" attributeName="transform"></animateTransform>
  <path transform="scale(0.625)" fill="#ffffff" d="M84.717,33.597c0.791-2.503,1.186-5.138,1.186-7.773C85.903,11.594,74.308,0,60.079,0 c-9.881,0-18.445,5.534-22.793,13.702c-1.581-0.527-3.426-0.791-5.138-0.791c-9.486,0-17.128,7.642-17.128,17.128 c0,1.186,0.132,2.372,0.395,3.426C6.719,34.783,0,42.424,0,51.515C0,61.66,8.169,69.829,18.314,69.829h63.373 C91.831,69.829,100,61.66,100,51.515C99.868,42.556,93.281,35.046,84.717,33.597z"></path>
</g><g transform="translate(-100 484.6498717447309) rotate(0)">
  <animateTransform begin="-214.08025232011136s" repeatCount="indefinite" dur="166.66666666666666s" values="-100 484.6498717447309;2300 484.6498717447309" keyTimes="0;1" type="translate" attributeName="transform"></animateTransform>
  <path transform="scale(0.625)" fill="#ffffff" d="M84.717,33.597c0.791-2.503,1.186-5.138,1.186-7.773C85.903,11.594,74.308,0,60.079,0 c-9.881,0-18.445,5.534-22.793,13.702c-1.581-0.527-3.426-0.791-5.138-0.791c-9.486,0-17.128,7.642-17.128,17.128 c0,1.186,0.132,2.372,0.395,3.426C6.719,34.783,0,42.424,0,51.515C0,61.66,8.169,69.829,18.314,69.829h63.373 C91.831,69.829,100,61.66,100,51.515C99.868,42.556,93.281,35.046,84.717,33.597z"></path>
</g><g transform="translate(-100 1315.523099399204) rotate(0)">
  <animateTransform begin="-279.13916156227606s" repeatCount="indefinite" dur="166.66666666666666s" values="-100 1315.523099399204;2300 1315.523099399204" keyTimes="0;1" type="translate" attributeName="transform"></animateTransform>
  <path transform="scale(0.625)" fill="#ffffff" d="M84.717,33.597c0.791-2.503,1.186-5.138,1.186-7.773C85.903,11.594,74.308,0,60.079,0 c-9.881,0-18.445,5.534-22.793,13.702c-1.581-0.527-3.426-0.791-5.138-0.791c-9.486,0-17.128,7.642-17.128,17.128 c0,1.186,0.132,2.372,0.395,3.426C6.719,34.783,0,42.424,0,51.515C0,61.66,8.169,69.829,18.314,69.829h63.373 C91.831,69.829,100,61.66,100,51.515C99.868,42.556,93.281,35.046,84.717,33.597z"></path>
</g><g transform="translate(-100 851.676753993962) rotate(0)">
  <animateTransform begin="-5.163195953047846s" repeatCount="indefinite" dur="166.66666666666666s" values="-100 851.676753993962;2300 851.676753993962" keyTimes="0;1" type="translate" attributeName="transform"></animateTransform>
  <path transform="scale(0.625)" fill="#ffffff" d="M84.717,33.597c0.791-2.503,1.186-5.138,1.186-7.773C85.903,11.594,74.308,0,60.079,0 c-9.881,0-18.445,5.534-22.793,13.702c-1.581-0.527-3.426-0.791-5.138-0.791c-9.486,0-17.128,7.642-17.128,17.128 c0,1.186,0.132,2.372,0.395,3.426C6.719,34.783,0,42.424,0,51.515C0,61.66,8.169,69.829,18.314,69.829h63.373 C91.831,69.829,100,61.66,100,51.515C99.868,42.556,93.281,35.046,84.717,33.597z"></path>
</g><g transform="translate(-100 251.87475959371767) rotate(0)">
  <animateTransform begin="-219.7462315305207s" repeatCount="indefinite" dur="166.66666666666666s" values="-100 251.87475959371767;2300 251.87475959371767" keyTimes="0;1" type="translate" attributeName="transform"></animateTransform>
  <path transform="scale(0.625)" fill="#ffffff" d="M84.717,33.597c0.791-2.503,1.186-5.138,1.186-7.773C85.903,11.594,74.308,0,60.079,0 c-9.881,0-18.445,5.534-22.793,13.702c-1.581-0.527-3.426-0.791-5.138-0.791c-9.486,0-17.128,7.642-17.128,17.128 c0,1.186,0.132,2.372,0.395,3.426C6.719,34.783,0,42.424,0,51.515C0,61.66,8.169,69.829,18.314,69.829h63.373 C91.831,69.829,100,61.66,100,51.515C99.868,42.556,93.281,35.046,84.717,33.597z"></path>
</g><g transform="translate(-100 1053.4858582452166) rotate(0)">
  <animateTransform begin="-75.91731813119056s" repeatCount="indefinite" dur="166.66666666666666s" values="-100 1053.4858582452166;2300 1053.4858582452166" keyTimes="0;1" type="translate" attributeName="transform"></animateTransform>
  <path transform="scale(0.625)" fill="#ffffff" d="M84.717,33.597c0.791-2.503,1.186-5.138,1.186-7.773C85.903,11.594,74.308,0,60.079,0 c-9.881,0-18.445,5.534-22.793,13.702c-1.581-0.527-3.426-0.791-5.138-0.791c-9.486,0-17.128,7.642-17.128,17.128 c0,1.186,0.132,2.372,0.395,3.426C6.719,34.783,0,42.424,0,51.515C0,61.66,8.169,69.829,18.314,69.829h63.373 C91.831,69.829,100,61.66,100,51.515C99.868,42.556,93.281,35.046,84.717,33.597z"></path>
</g><g transform="translate(-100 685.7582880924145) rotate(0)">
  <animateTransform begin="-164.6044005427978s" repeatCount="indefinite" dur="166.66666666666666s" values="-100 685.7582880924145;2300 685.7582880924145" keyTimes="0;1" type="translate" attributeName="transform"></animateTransform>
  <path transform="scale(0.625)" fill="#ffffff" d="M84.717,33.597c0.791-2.503,1.186-5.138,1.186-7.773C85.903,11.594,74.308,0,60.079,0 c-9.881,0-18.445,5.534-22.793,13.702c-1.581-0.527-3.426-0.791-5.138-0.791c-9.486,0-17.128,7.642-17.128,17.128 c0,1.186,0.132,2.372,0.395,3.426C6.719,34.783,0,42.424,0,51.515C0,61.66,8.169,69.829,18.314,69.829h63.373 C91.831,69.829,100,61.66,100,51.515C99.868,42.556,93.281,35.046,84.717,33.597z"></path>
</g><g transform="translate(-100 1388.179568761808) rotate(0)">
  <animateTransform begin="-295.4120813977572s" repeatCount="indefinite" dur="166.66666666666666s" values="-100 1388.179568761808;2300 1388.179568761808" keyTimes="0;1" type="translate" attributeName="transform"></animateTransform>
  <path transform="scale(0.625)" fill="#ffffff" d="M84.717,33.597c0.791-2.503,1.186-5.138,1.186-7.773C85.903,11.594,74.308,0,60.079,0 c-9.881,0-18.445,5.534-22.793,13.702c-1.581-0.527-3.426-0.791-5.138-0.791c-9.486,0-17.128,7.642-17.128,17.128 c0,1.186,0.132,2.372,0.395,3.426C6.719,34.783,0,42.424,0,51.515C0,61.66,8.169,69.829,18.314,69.829h63.373 C91.831,69.829,100,61.66,100,51.515C99.868,42.556,93.281,35.046,84.717,33.597z"></path>
</g><g transform="translate(-100 974.568106563392) rotate(0)">
  <animateTransform begin="-271.54525794673134s" repeatCount="indefinite" dur="166.66666666666666s" values="-100 974.568106563392;2300 974.568106563392" keyTimes="0;1" type="translate" attributeName="transform"></animateTransform>
  <path transform="scale(0.625)" fill="#ffffff" d="M84.717,33.597c0.791-2.503,1.186-5.138,1.186-7.773C85.903,11.594,74.308,0,60.079,0 c-9.881,0-18.445,5.534-22.793,13.702c-1.581-0.527-3.426-0.791-5.138-0.791c-9.486,0-17.128,7.642-17.128,17.128 c0,1.186,0.132,2.372,0.395,3.426C6.719,34.783,0,42.424,0,51.515C0,61.66,8.169,69.829,18.314,69.829h63.373 C91.831,69.829,100,61.66,100,51.515C99.868,42.556,93.281,35.046,84.717,33.597z"></path>
</g><g transform="translate(-100 504.20967568409014) rotate(0)">
  <animateTransform begin="-317.71714819781846s" repeatCount="indefinite" dur="166.66666666666666s" values="-100 504.20967568409014;2300 504.20967568409014" keyTimes="0;1" type="translate" attributeName="transform"></animateTransform>
  <path transform="scale(0.625)" fill="#ffffff" d="M84.717,33.597c0.791-2.503,1.186-5.138,1.186-7.773C85.903,11.594,74.308,0,60.079,0 c-9.881,0-18.445,5.534-22.793,13.702c-1.581-0.527-3.426-0.791-5.138-0.791c-9.486,0-17.128,7.642-17.128,17.128 c0,1.186,0.132,2.372,0.395,3.426C6.719,34.783,0,42.424,0,51.515C0,61.66,8.169,69.829,18.314,69.829h63.373 C91.831,69.829,100,61.66,100,51.515C99.868,42.556,93.281,35.046,84.717,33.597z"></path>
</g><g transform="translate(-100 473.5978615466661) rotate(0)">
  <animateTransform begin="-234.72735256105997s" repeatCount="indefinite" dur="166.66666666666666s" values="-100 473.5978615466661;2300 473.5978615466661" keyTimes="0;1" type="translate" attributeName="transform"></animateTransform>
  <path transform="scale(0.625)" fill="#ffffff" d="M84.717,33.597c0.791-2.503,1.186-5.138,1.186-7.773C85.903,11.594,74.308,0,60.079,0 c-9.881,0-18.445,5.534-22.793,13.702c-1.581-0.527-3.426-0.791-5.138-0.791c-9.486,0-17.128,7.642-17.128,17.128 c0,1.186,0.132,2.372,0.395,3.426C6.719,34.783,0,42.424,0,51.515C0,61.66,8.169,69.829,18.314,69.829h63.373 C91.831,69.829,100,61.66,100,51.515C99.868,42.556,93.281,35.046,84.717,33.597z"></path>
</g><g transform="translate(-100 104.11663556600452) rotate(0)">
  <animateTransform begin="-290.34579338673683s" repeatCount="indefinite" dur="166.66666666666666s" values="-100 104.11663556600452;2300 104.11663556600452" keyTimes="0;1" type="translate" attributeName="transform"></animateTransform>
  <path transform="scale(0.625)" fill="#ffffff" d="M84.717,33.597c0.791-2.503,1.186-5.138,1.186-7.773C85.903,11.594,74.308,0,60.079,0 c-9.881,0-18.445,5.534-22.793,13.702c-1.581-0.527-3.426-0.791-5.138-0.791c-9.486,0-17.128,7.642-17.128,17.128 c0,1.186,0.132,2.372,0.395,3.426C6.719,34.783,0,42.424,0,51.515C0,61.66,8.169,69.829,18.314,69.829h63.373 C91.831,69.829,100,61.66,100,51.515C99.868,42.556,93.281,35.046,84.717,33.597z"></path>
</g><g transform="translate(-100 1094.6575694006433) rotate(0)">
  <animateTransform begin="-42.905710626009174s" repeatCount="indefinite" dur="166.66666666666666s" values="-100 1094.6575694006433;2300 1094.6575694006433" keyTimes="0;1" type="translate" attributeName="transform"></animateTransform>
  <path transform="scale(0.625)" fill="#ffffff" d="M84.717,33.597c0.791-2.503,1.186-5.138,1.186-7.773C85.903,11.594,74.308,0,60.079,0 c-9.881,0-18.445,5.534-22.793,13.702c-1.581-0.527-3.426-0.791-5.138-0.791c-9.486,0-17.128,7.642-17.128,17.128 c0,1.186,0.132,2.372,0.395,3.426C6.719,34.783,0,42.424,0,51.515C0,61.66,8.169,69.829,18.314,69.829h63.373 C91.831,69.829,100,61.66,100,51.515C99.868,42.556,93.281,35.046,84.717,33.597z"></path>
</g><g transform="translate(-100 491.994670063136) rotate(0)">
  <animateTransform begin="-277.21128119764535s" repeatCount="indefinite" dur="166.66666666666666s" values="-100 491.994670063136;2300 491.994670063136" keyTimes="0;1" type="translate" attributeName="transform"></animateTransform>
  <path transform="scale(0.625)" fill="#ffffff" d="M84.717,33.597c0.791-2.503,1.186-5.138,1.186-7.773C85.903,11.594,74.308,0,60.079,0 c-9.881,0-18.445,5.534-22.793,13.702c-1.581-0.527-3.426-0.791-5.138-0.791c-9.486,0-17.128,7.642-17.128,17.128 c0,1.186,0.132,2.372,0.395,3.426C6.719,34.783,0,42.424,0,51.515C0,61.66,8.169,69.829,18.314,69.829h63.373 C91.831,69.829,100,61.66,100,51.515C99.868,42.556,93.281,35.046,84.717,33.597z"></path>
</g><g transform="translate(-100 182.85789345633395) rotate(0)">
  <animateTransform begin="-235.45833994192486s" repeatCount="indefinite" dur="166.66666666666666s" values="-100 182.85789345633395;2300 182.85789345633395" keyTimes="0;1" type="translate" attributeName="transform"></animateTransform>
  <path transform="scale(0.625)" fill="#ffffff" d="M84.717,33.597c0.791-2.503,1.186-5.138,1.186-7.773C85.903,11.594,74.308,0,60.079,0 c-9.881,0-18.445,5.534-22.793,13.702c-1.581-0.527-3.426-0.791-5.138-0.791c-9.486,0-17.128,7.642-17.128,17.128 c0,1.186,0.132,2.372,0.395,3.426C6.719,34.783,0,42.424,0,51.515C0,61.66,8.169,69.829,18.314,69.829h63.373 C91.831,69.829,100,61.66,100,51.515C99.868,42.556,93.281,35.046,84.717,33.597z"></path>
</g><g transform="translate(-100 464.983532540261) rotate(0)">
  <animateTransform begin="-60.81637669445699s" repeatCount="indefinite" dur="111.1111111111111s" values="-100 464.983532540261;2300 464.983532540261" keyTimes="0;1" type="translate" attributeName="transform"></animateTransform>
  <path transform="scale(0.8125)" fill="#f1f2f3" d="M84.717,33.597c0.791-2.503,1.186-5.138,1.186-7.773C85.903,11.594,74.308,0,60.079,0 c-9.881,0-18.445,5.534-22.793,13.702c-1.581-0.527-3.426-0.791-5.138-0.791c-9.486,0-17.128,7.642-17.128,17.128 c0,1.186,0.132,2.372,0.395,3.426C6.719,34.783,0,42.424,0,51.515C0,61.66,8.169,69.829,18.314,69.829h63.373 C91.831,69.829,100,61.66,100,51.515C99.868,42.556,93.281,35.046,84.717,33.597z"></path>
</g><g transform="translate(-100 204.90638976960918) rotate(0)">
  <animateTransform begin="-48.721266542530685s" repeatCount="indefinite" dur="111.1111111111111s" values="-100 204.90638976960918;2300 204.90638976960918" keyTimes="0;1" type="translate" attributeName="transform"></animateTransform>
  <path transform="scale(0.8125)" fill="#f1f2f3" d="M84.717,33.597c0.791-2.503,1.186-5.138,1.186-7.773C85.903,11.594,74.308,0,60.079,0 c-9.881,0-18.445,5.534-22.793,13.702c-1.581-0.527-3.426-0.791-5.138-0.791c-9.486,0-17.128,7.642-17.128,17.128 c0,1.186,0.132,2.372,0.395,3.426C6.719,34.783,0,42.424,0,51.515C0,61.66,8.169,69.829,18.314,69.829h63.373 C91.831,69.829,100,61.66,100,51.515C99.868,42.556,93.281,35.046,84.717,33.597z"></path>
</g><g transform="translate(-100 747.0043422175527) rotate(0)">
  <animateTransform begin="-166.88566881815277s" repeatCount="indefinite" dur="111.1111111111111s" values="-100 747.0043422175527;2300 747.0043422175527" keyTimes="0;1" type="translate" attributeName="transform"></animateTransform>
  <path transform="scale(0.8125)" fill="#f1f2f3" d="M84.717,33.597c0.791-2.503,1.186-5.138,1.186-7.773C85.903,11.594,74.308,0,60.079,0 c-9.881,0-18.445,5.534-22.793,13.702c-1.581-0.527-3.426-0.791-5.138-0.791c-9.486,0-17.128,7.642-17.128,17.128 c0,1.186,0.132,2.372,0.395,3.426C6.719,34.783,0,42.424,0,51.515C0,61.66,8.169,69.829,18.314,69.829h63.373 C91.831,69.829,100,61.66,100,51.515C99.868,42.556,93.281,35.046,84.717,33.597z"></path>
</g><g transform="translate(-100 563.2777728170131) rotate(0)">
  <animateTransform begin="-92.11410088751076s" repeatCount="indefinite" dur="111.1111111111111s" values="-100 563.2777728170131;2300 563.2777728170131" keyTimes="0;1" type="translate" attributeName="transform"></animateTransform>
  <path transform="scale(0.8125)" fill="#f1f2f3" d="M84.717,33.597c0.791-2.503,1.186-5.138,1.186-7.773C85.903,11.594,74.308,0,60.079,0 c-9.881,0-18.445,5.534-22.793,13.702c-1.581-0.527-3.426-0.791-5.138-0.791c-9.486,0-17.128,7.642-17.128,17.128 c0,1.186,0.132,2.372,0.395,3.426C6.719,34.783,0,42.424,0,51.515C0,61.66,8.169,69.829,18.314,69.829h63.373 C91.831,69.829,100,61.66,100,51.515C99.868,42.556,93.281,35.046,84.717,33.597z"></path>
</g><g transform="translate(-100 1381.7221509318495) rotate(0)">
  <animateTransform begin="-58.80587597131423s" repeatCount="indefinite" dur="111.1111111111111s" values="-100 1381.7221509318495;2300 1381.7221509318495" keyTimes="0;1" type="translate" attributeName="transform"></animateTransform>
  <path transform="scale(0.8125)" fill="#f1f2f3" d="M84.717,33.597c0.791-2.503,1.186-5.138,1.186-7.773C85.903,11.594,74.308,0,60.079,0 c-9.881,0-18.445,5.534-22.793,13.702c-1.581-0.527-3.426-0.791-5.138-0.791c-9.486,0-17.128,7.642-17.128,17.128 c0,1.186,0.132,2.372,0.395,3.426C6.719,34.783,0,42.424,0,51.515C0,61.66,8.169,69.829,18.314,69.829h63.373 C91.831,69.829,100,61.66,100,51.515C99.868,42.556,93.281,35.046,84.717,33.597z"></path>
</g><g transform="translate(-100 1358.4311598409483) rotate(0)">
  <animateTransform begin="-221.73848758873274s" repeatCount="indefinite" dur="111.1111111111111s" values="-100 1358.4311598409483;2300 1358.4311598409483" keyTimes="0;1" type="translate" attributeName="transform"></animateTransform>
  <path transform="scale(0.8125)" fill="#f1f2f3" d="M84.717,33.597c0.791-2.503,1.186-5.138,1.186-7.773C85.903,11.594,74.308,0,60.079,0 c-9.881,0-18.445,5.534-22.793,13.702c-1.581-0.527-3.426-0.791-5.138-0.791c-9.486,0-17.128,7.642-17.128,17.128 c0,1.186,0.132,2.372,0.395,3.426C6.719,34.783,0,42.424,0,51.515C0,61.66,8.169,69.829,18.314,69.829h63.373 C91.831,69.829,100,61.66,100,51.515C99.868,42.556,93.281,35.046,84.717,33.597z"></path>
</g><g transform="translate(-100 475.40514849755465) rotate(0)">
  <animateTransform begin="-128.69142495141924s" repeatCount="indefinite" dur="111.1111111111111s" values="-100 475.40514849755465;2300 475.40514849755465" keyTimes="0;1" type="translate" attributeName="transform"></animateTransform>
  <path transform="scale(0.8125)" fill="#f1f2f3" d="M84.717,33.597c0.791-2.503,1.186-5.138,1.186-7.773C85.903,11.594,74.308,0,60.079,0 c-9.881,0-18.445,5.534-22.793,13.702c-1.581-0.527-3.426-0.791-5.138-0.791c-9.486,0-17.128,7.642-17.128,17.128 c0,1.186,0.132,2.372,0.395,3.426C6.719,34.783,0,42.424,0,51.515C0,61.66,8.169,69.829,18.314,69.829h63.373 C91.831,69.829,100,61.66,100,51.515C99.868,42.556,93.281,35.046,84.717,33.597z"></path>
</g><g transform="translate(-100 861.4648326939179) rotate(0)">
  <animateTransform begin="-277.15417447744886s" repeatCount="indefinite" dur="111.1111111111111s" values="-100 861.4648326939179;2300 861.4648326939179" keyTimes="0;1" type="translate" attributeName="transform"></animateTransform>
  <path transform="scale(0.8125)" fill="#f1f2f3" d="M84.717,33.597c0.791-2.503,1.186-5.138,1.186-7.773C85.903,11.594,74.308,0,60.079,0 c-9.881,0-18.445,5.534-22.793,13.702c-1.581-0.527-3.426-0.791-5.138-0.791c-9.486,0-17.128,7.642-17.128,17.128 c0,1.186,0.132,2.372,0.395,3.426C6.719,34.783,0,42.424,0,51.515C0,61.66,8.169,69.829,18.314,69.829h63.373 C91.831,69.829,100,61.66,100,51.515C99.868,42.556,93.281,35.046,84.717,33.597z"></path>
</g><g transform="translate(-100 1041.4678389204964) rotate(0)">
  <animateTransform begin="-30.985244992067376s" repeatCount="indefinite" dur="111.1111111111111s" values="-100 1041.4678389204964;2300 1041.4678389204964" keyTimes="0;1" type="translate" attributeName="transform"></animateTransform>
  <path transform="scale(0.8125)" fill="#f1f2f3" d="M84.717,33.597c0.791-2.503,1.186-5.138,1.186-7.773C85.903,11.594,74.308,0,60.079,0 c-9.881,0-18.445,5.534-22.793,13.702c-1.581-0.527-3.426-0.791-5.138-0.791c-9.486,0-17.128,7.642-17.128,17.128 c0,1.186,0.132,2.372,0.395,3.426C6.719,34.783,0,42.424,0,51.515C0,61.66,8.169,69.829,18.314,69.829h63.373 C91.831,69.829,100,61.66,100,51.515C99.868,42.556,93.281,35.046,84.717,33.597z"></path>
</g><g transform="translate(-100 1143.5909456589472) rotate(0)">
  <animateTransform begin="-60.33260155292349s" repeatCount="indefinite" dur="111.1111111111111s" values="-100 1143.5909456589472;2300 1143.5909456589472" keyTimes="0;1" type="translate" attributeName="transform"></animateTransform>
  <path transform="scale(0.8125)" fill="#f1f2f3" d="M84.717,33.597c0.791-2.503,1.186-5.138,1.186-7.773C85.903,11.594,74.308,0,60.079,0 c-9.881,0-18.445,5.534-22.793,13.702c-1.581-0.527-3.426-0.791-5.138-0.791c-9.486,0-17.128,7.642-17.128,17.128 c0,1.186,0.132,2.372,0.395,3.426C6.719,34.783,0,42.424,0,51.515C0,61.66,8.169,69.829,18.314,69.829h63.373 C91.831,69.829,100,61.66,100,51.515C99.868,42.556,93.281,35.046,84.717,33.597z"></path>
</g><g transform="translate(-100 1103.5607565662676) rotate(0)">
  <animateTransform begin="-306.277552347735s" repeatCount="indefinite" dur="111.1111111111111s" values="-100 1103.5607565662676;2300 1103.5607565662676" keyTimes="0;1" type="translate" attributeName="transform"></animateTransform>
  <path transform="scale(0.8125)" fill="#f1f2f3" d="M84.717,33.597c0.791-2.503,1.186-5.138,1.186-7.773C85.903,11.594,74.308,0,60.079,0 c-9.881,0-18.445,5.534-22.793,13.702c-1.581-0.527-3.426-0.791-5.138-0.791c-9.486,0-17.128,7.642-17.128,17.128 c0,1.186,0.132,2.372,0.395,3.426C6.719,34.783,0,42.424,0,51.515C0,61.66,8.169,69.829,18.314,69.829h63.373 C91.831,69.829,100,61.66,100,51.515C99.868,42.556,93.281,35.046,84.717,33.597z"></path>
</g><g transform="translate(-100 64.5737834045392) rotate(0)">
  <animateTransform begin="-306.9412375457362s" repeatCount="indefinite" dur="111.1111111111111s" values="-100 64.5737834045392;2300 64.5737834045392" keyTimes="0;1" type="translate" attributeName="transform"></animateTransform>
  <path transform="scale(0.8125)" fill="#f1f2f3" d="M84.717,33.597c0.791-2.503,1.186-5.138,1.186-7.773C85.903,11.594,74.308,0,60.079,0 c-9.881,0-18.445,5.534-22.793,13.702c-1.581-0.527-3.426-0.791-5.138-0.791c-9.486,0-17.128,7.642-17.128,17.128 c0,1.186,0.132,2.372,0.395,3.426C6.719,34.783,0,42.424,0,51.515C0,61.66,8.169,69.829,18.314,69.829h63.373 C91.831,69.829,100,61.66,100,51.515C99.868,42.556,93.281,35.046,84.717,33.597z"></path>
</g><g transform="translate(-100 679.2093151584153) rotate(0)">
  <animateTransform begin="-301.24216648950875s" repeatCount="indefinite" dur="111.1111111111111s" values="-100 679.2093151584153;2300 679.2093151584153" keyTimes="0;1" type="translate" attributeName="transform"></animateTransform>
  <path transform="scale(0.8125)" fill="#f1f2f3" d="M84.717,33.597c0.791-2.503,1.186-5.138,1.186-7.773C85.903,11.594,74.308,0,60.079,0 c-9.881,0-18.445,5.534-22.793,13.702c-1.581-0.527-3.426-0.791-5.138-0.791c-9.486,0-17.128,7.642-17.128,17.128 c0,1.186,0.132,2.372,0.395,3.426C6.719,34.783,0,42.424,0,51.515C0,61.66,8.169,69.829,18.314,69.829h63.373 C91.831,69.829,100,61.66,100,51.515C99.868,42.556,93.281,35.046,84.717,33.597z"></path>
</g><g transform="translate(-100 272.39938396761033) rotate(0)">
  <animateTransform begin="-73.54757076387533s" repeatCount="indefinite" dur="111.1111111111111s" values="-100 272.39938396761033;2300 272.39938396761033" keyTimes="0;1" type="translate" attributeName="transform"></animateTransform>
  <path transform="scale(0.8125)" fill="#f1f2f3" d="M84.717,33.597c0.791-2.503,1.186-5.138,1.186-7.773C85.903,11.594,74.308,0,60.079,0 c-9.881,0-18.445,5.534-22.793,13.702c-1.581-0.527-3.426-0.791-5.138-0.791c-9.486,0-17.128,7.642-17.128,17.128 c0,1.186,0.132,2.372,0.395,3.426C6.719,34.783,0,42.424,0,51.515C0,61.66,8.169,69.829,18.314,69.829h63.373 C91.831,69.829,100,61.66,100,51.515C99.868,42.556,93.281,35.046,84.717,33.597z"></path>
</g><g transform="translate(-100 838.7458621891897) rotate(0)">
  <animateTransform begin="-279.79683378680915s" repeatCount="indefinite" dur="111.1111111111111s" values="-100 838.7458621891897;2300 838.7458621891897" keyTimes="0;1" type="translate" attributeName="transform"></animateTransform>
  <path transform="scale(0.8125)" fill="#f1f2f3" d="M84.717,33.597c0.791-2.503,1.186-5.138,1.186-7.773C85.903,11.594,74.308,0,60.079,0 c-9.881,0-18.445,5.534-22.793,13.702c-1.581-0.527-3.426-0.791-5.138-0.791c-9.486,0-17.128,7.642-17.128,17.128 c0,1.186,0.132,2.372,0.395,3.426C6.719,34.783,0,42.424,0,51.515C0,61.66,8.169,69.829,18.314,69.829h63.373 C91.831,69.829,100,61.66,100,51.515C99.868,42.556,93.281,35.046,84.717,33.597z"></path>
</g><g transform="translate(-100 224.1879682637424) rotate(0)">
  <animateTransform begin="-47.063797133434186s" repeatCount="indefinite" dur="111.1111111111111s" values="-100 224.1879682637424;2300 224.1879682637424" keyTimes="0;1" type="translate" attributeName="transform"></animateTransform>
  <path transform="scale(0.8125)" fill="#f1f2f3" d="M84.717,33.597c0.791-2.503,1.186-5.138,1.186-7.773C85.903,11.594,74.308,0,60.079,0 c-9.881,0-18.445,5.534-22.793,13.702c-1.581-0.527-3.426-0.791-5.138-0.791c-9.486,0-17.128,7.642-17.128,17.128 c0,1.186,0.132,2.372,0.395,3.426C6.719,34.783,0,42.424,0,51.515C0,61.66,8.169,69.829,18.314,69.829h63.373 C91.831,69.829,100,61.66,100,51.515C99.868,42.556,93.281,35.046,84.717,33.597z"></path>
</g><g transform="translate(-100 971.8761525793466) rotate(0)">
  <animateTransform begin="-244.69480673141953s" repeatCount="indefinite" dur="111.1111111111111s" values="-100 971.8761525793466;2300 971.8761525793466" keyTimes="0;1" type="translate" attributeName="transform"></animateTransform>
  <path transform="scale(0.8125)" fill="#f1f2f3" d="M84.717,33.597c0.791-2.503,1.186-5.138,1.186-7.773C85.903,11.594,74.308,0,60.079,0 c-9.881,0-18.445,5.534-22.793,13.702c-1.581-0.527-3.426-0.791-5.138-0.791c-9.486,0-17.128,7.642-17.128,17.128 c0,1.186,0.132,2.372,0.395,3.426C6.719,34.783,0,42.424,0,51.515C0,61.66,8.169,69.829,18.314,69.829h63.373 C91.831,69.829,100,61.66,100,51.515C99.868,42.556,93.281,35.046,84.717,33.597z"></path>
</g><g transform="translate(-100 588.0761240695011) rotate(0)">
  <animateTransform begin="-19.831102993566535s" repeatCount="indefinite" dur="111.1111111111111s" values="-100 588.0761240695011;2300 588.0761240695011" keyTimes="0;1" type="translate" attributeName="transform"></animateTransform>
  <path transform="scale(0.8125)" fill="#f1f2f3" d="M84.717,33.597c0.791-2.503,1.186-5.138,1.186-7.773C85.903,11.594,74.308,0,60.079,0 c-9.881,0-18.445,5.534-22.793,13.702c-1.581-0.527-3.426-0.791-5.138-0.791c-9.486,0-17.128,7.642-17.128,17.128 c0,1.186,0.132,2.372,0.395,3.426C6.719,34.783,0,42.424,0,51.515C0,61.66,8.169,69.829,18.314,69.829h63.373 C91.831,69.829,100,61.66,100,51.515C99.868,42.556,93.281,35.046,84.717,33.597z"></path>
</g><g transform="translate(-100 809.7664781626869) rotate(0)">
  <animateTransform begin="-281.56331760054934s" repeatCount="indefinite" dur="111.1111111111111s" values="-100 809.7664781626869;2300 809.7664781626869" keyTimes="0;1" type="translate" attributeName="transform"></animateTransform>
  <path transform="scale(0.8125)" fill="#f1f2f3" d="M84.717,33.597c0.791-2.503,1.186-5.138,1.186-7.773C85.903,11.594,74.308,0,60.079,0 c-9.881,0-18.445,5.534-22.793,13.702c-1.581-0.527-3.426-0.791-5.138-0.791c-9.486,0-17.128,7.642-17.128,17.128 c0,1.186,0.132,2.372,0.395,3.426C6.719,34.783,0,42.424,0,51.515C0,61.66,8.169,69.829,18.314,69.829h63.373 C91.831,69.829,100,61.66,100,51.515C99.868,42.556,93.281,35.046,84.717,33.597z"></path>
</g><g transform="translate(-100 1027.3448873750062) rotate(0)">
  <animateTransform begin="-121.99295742847846s" repeatCount="indefinite" dur="111.1111111111111s" values="-100 1027.3448873750062;2300 1027.3448873750062" keyTimes="0;1" type="translate" attributeName="transform"></animateTransform>
  <path transform="scale(0.8125)" fill="#f1f2f3" d="M84.717,33.597c0.791-2.503,1.186-5.138,1.186-7.773C85.903,11.594,74.308,0,60.079,0 c-9.881,0-18.445,5.534-22.793,13.702c-1.581-0.527-3.426-0.791-5.138-0.791c-9.486,0-17.128,7.642-17.128,17.128 c0,1.186,0.132,2.372,0.395,3.426C6.719,34.783,0,42.424,0,51.515C0,61.66,8.169,69.829,18.314,69.829h63.373 C91.831,69.829,100,61.66,100,51.515C99.868,42.556,93.281,35.046,84.717,33.597z"></path>
</g><g transform="translate(-100 1266.3718697232634) rotate(0)">
  <animateTransform begin="-229.84015944542008s" repeatCount="indefinite" dur="83.33333333333333s" values="-100 1266.3718697232634;2300 1266.3718697232634" keyTimes="0;1" type="translate" attributeName="transform"></animateTransform>
  <path transform="scale(1)" fill="#bddeff" d="M84.717,33.597c0.791-2.503,1.186-5.138,1.186-7.773C85.903,11.594,74.308,0,60.079,0 c-9.881,0-18.445,5.534-22.793,13.702c-1.581-0.527-3.426-0.791-5.138-0.791c-9.486,0-17.128,7.642-17.128,17.128 c0,1.186,0.132,2.372,0.395,3.426C6.719,34.783,0,42.424,0,51.515C0,61.66,8.169,69.829,18.314,69.829h63.373 C91.831,69.829,100,61.66,100,51.515C99.868,42.556,93.281,35.046,84.717,33.597z"></path>
</g><g transform="translate(-100 1293.9515813142743) rotate(0)">
  <animateTransform begin="-281.87200343314123s" repeatCount="indefinite" dur="83.33333333333333s" values="-100 1293.9515813142743;2300 1293.9515813142743" keyTimes="0;1" type="translate" attributeName="transform"></animateTransform>
  <path transform="scale(1)" fill="#bddeff" d="M84.717,33.597c0.791-2.503,1.186-5.138,1.186-7.773C85.903,11.594,74.308,0,60.079,0 c-9.881,0-18.445,5.534-22.793,13.702c-1.581-0.527-3.426-0.791-5.138-0.791c-9.486,0-17.128,7.642-17.128,17.128 c0,1.186,0.132,2.372,0.395,3.426C6.719,34.783,0,42.424,0,51.515C0,61.66,8.169,69.829,18.314,69.829h63.373 C91.831,69.829,100,61.66,100,51.515C99.868,42.556,93.281,35.046,84.717,33.597z"></path>
</g><g transform="translate(-100 106.99577961365587) rotate(0)">
  <animateTransform begin="-102.1680641559751s" repeatCount="indefinite" dur="83.33333333333333s" values="-100 106.99577961365587;2300 106.99577961365587" keyTimes="0;1" type="translate" attributeName="transform"></animateTransform>
  <path transform="scale(1)" fill="#bddeff" d="M84.717,33.597c0.791-2.503,1.186-5.138,1.186-7.773C85.903,11.594,74.308,0,60.079,0 c-9.881,0-18.445,5.534-22.793,13.702c-1.581-0.527-3.426-0.791-5.138-0.791c-9.486,0-17.128,7.642-17.128,17.128 c0,1.186,0.132,2.372,0.395,3.426C6.719,34.783,0,42.424,0,51.515C0,61.66,8.169,69.829,18.314,69.829h63.373 C91.831,69.829,100,61.66,100,51.515C99.868,42.556,93.281,35.046,84.717,33.597z"></path>
</g><g transform="translate(-100 433.72327506869) rotate(0)">
  <animateTransform begin="-331.38568560690726s" repeatCount="indefinite" dur="83.33333333333333s" values="-100 433.72327506869;2300 433.72327506869" keyTimes="0;1" type="translate" attributeName="transform"></animateTransform>
  <path transform="scale(1)" fill="#bddeff" d="M84.717,33.597c0.791-2.503,1.186-5.138,1.186-7.773C85.903,11.594,74.308,0,60.079,0 c-9.881,0-18.445,5.534-22.793,13.702c-1.581-0.527-3.426-0.791-5.138-0.791c-9.486,0-17.128,7.642-17.128,17.128 c0,1.186,0.132,2.372,0.395,3.426C6.719,34.783,0,42.424,0,51.515C0,61.66,8.169,69.829,18.314,69.829h63.373 C91.831,69.829,100,61.66,100,51.515C99.868,42.556,93.281,35.046,84.717,33.597z"></path>
</g><g transform="translate(-100 663.7030607396031) rotate(0)">
  <animateTransform begin="-241.80590376316178s" repeatCount="indefinite" dur="83.33333333333333s" values="-100 663.7030607396031;2300 663.7030607396031" keyTimes="0;1" type="translate" attributeName="transform"></animateTransform>
  <path transform="scale(1)" fill="#bddeff" d="M84.717,33.597c0.791-2.503,1.186-5.138,1.186-7.773C85.903,11.594,74.308,0,60.079,0 c-9.881,0-18.445,5.534-22.793,13.702c-1.581-0.527-3.426-0.791-5.138-0.791c-9.486,0-17.128,7.642-17.128,17.128 c0,1.186,0.132,2.372,0.395,3.426C6.719,34.783,0,42.424,0,51.515C0,61.66,8.169,69.829,18.314,69.829h63.373 C91.831,69.829,100,61.66,100,51.515C99.868,42.556,93.281,35.046,84.717,33.597z"></path>
</g><g transform="translate(-100 285.2367204516014) rotate(0)">
  <animateTransform begin="-171.84547295146646s" repeatCount="indefinite" dur="83.33333333333333s" values="-100 285.2367204516014;2300 285.2367204516014" keyTimes="0;1" type="translate" attributeName="transform"></animateTransform>
  <path transform="scale(1)" fill="#bddeff" d="M84.717,33.597c0.791-2.503,1.186-5.138,1.186-7.773C85.903,11.594,74.308,0,60.079,0 c-9.881,0-18.445,5.534-22.793,13.702c-1.581-0.527-3.426-0.791-5.138-0.791c-9.486,0-17.128,7.642-17.128,17.128 c0,1.186,0.132,2.372,0.395,3.426C6.719,34.783,0,42.424,0,51.515C0,61.66,8.169,69.829,18.314,69.829h63.373 C91.831,69.829,100,61.66,100,51.515C99.868,42.556,93.281,35.046,84.717,33.597z"></path>
</g><g transform="translate(-100 422.4613831987718) rotate(0)">
  <animateTransform begin="-150.95186054769587s" repeatCount="indefinite" dur="83.33333333333333s" values="-100 422.4613831987718;2300 422.4613831987718" keyTimes="0;1" type="translate" attributeName="transform"></animateTransform>
  <path transform="scale(1)" fill="#bddeff" d="M84.717,33.597c0.791-2.503,1.186-5.138,1.186-7.773C85.903,11.594,74.308,0,60.079,0 c-9.881,0-18.445,5.534-22.793,13.702c-1.581-0.527-3.426-0.791-5.138-0.791c-9.486,0-17.128,7.642-17.128,17.128 c0,1.186,0.132,2.372,0.395,3.426C6.719,34.783,0,42.424,0,51.515C0,61.66,8.169,69.829,18.314,69.829h63.373 C91.831,69.829,100,61.66,100,51.515C99.868,42.556,93.281,35.046,84.717,33.597z"></path>
</g><g transform="translate(-100 1208.3185439796625) rotate(0)">
  <animateTransform begin="-14.962567763185298s" repeatCount="indefinite" dur="83.33333333333333s" values="-100 1208.3185439796625;2300 1208.3185439796625" keyTimes="0;1" type="translate" attributeName="transform"></animateTransform>
  <path transform="scale(1)" fill="#bddeff" d="M84.717,33.597c0.791-2.503,1.186-5.138,1.186-7.773C85.903,11.594,74.308,0,60.079,0 c-9.881,0-18.445,5.534-22.793,13.702c-1.581-0.527-3.426-0.791-5.138-0.791c-9.486,0-17.128,7.642-17.128,17.128 c0,1.186,0.132,2.372,0.395,3.426C6.719,34.783,0,42.424,0,51.515C0,61.66,8.169,69.829,18.314,69.829h63.373 C91.831,69.829,100,61.66,100,51.515C99.868,42.556,93.281,35.046,84.717,33.597z"></path>
</g><g transform="translate(-100 580.0887395778062) rotate(0)">
  <animateTransform begin="-31.703612856334164s" repeatCount="indefinite" dur="83.33333333333333s" values="-100 580.0887395778062;2300 580.0887395778062" keyTimes="0;1" type="translate" attributeName="transform"></animateTransform>
  <path transform="scale(1)" fill="#bddeff" d="M84.717,33.597c0.791-2.503,1.186-5.138,1.186-7.773C85.903,11.594,74.308,0,60.079,0 c-9.881,0-18.445,5.534-22.793,13.702c-1.581-0.527-3.426-0.791-5.138-0.791c-9.486,0-17.128,7.642-17.128,17.128 c0,1.186,0.132,2.372,0.395,3.426C6.719,34.783,0,42.424,0,51.515C0,61.66,8.169,69.829,18.314,69.829h63.373 C91.831,69.829,100,61.66,100,51.515C99.868,42.556,93.281,35.046,84.717,33.597z"></path>
</g><g transform="translate(-100 615.7224504653545) rotate(0)">
  <animateTransform begin="-215.35122639304578s" repeatCount="indefinite" dur="83.33333333333333s" values="-100 615.7224504653545;2300 615.7224504653545" keyTimes="0;1" type="translate" attributeName="transform"></animateTransform>
  <path transform="scale(1)" fill="#bddeff" d="M84.717,33.597c0.791-2.503,1.186-5.138,1.186-7.773C85.903,11.594,74.308,0,60.079,0 c-9.881,0-18.445,5.534-22.793,13.702c-1.581-0.527-3.426-0.791-5.138-0.791c-9.486,0-17.128,7.642-17.128,17.128 c0,1.186,0.132,2.372,0.395,3.426C6.719,34.783,0,42.424,0,51.515C0,61.66,8.169,69.829,18.314,69.829h63.373 C91.831,69.829,100,61.66,100,51.515C99.868,42.556,93.281,35.046,84.717,33.597z"></path>
</g><g transform="translate(-100 682.9807119357371) rotate(0)">
  <animateTransform begin="-21.66172452799741s" repeatCount="indefinite" dur="83.33333333333333s" values="-100 682.9807119357371;2300 682.9807119357371" keyTimes="0;1" type="translate" attributeName="transform"></animateTransform>
  <path transform="scale(1)" fill="#bddeff" d="M84.717,33.597c0.791-2.503,1.186-5.138,1.186-7.773C85.903,11.594,74.308,0,60.079,0 c-9.881,0-18.445,5.534-22.793,13.702c-1.581-0.527-3.426-0.791-5.138-0.791c-9.486,0-17.128,7.642-17.128,17.128 c0,1.186,0.132,2.372,0.395,3.426C6.719,34.783,0,42.424,0,51.515C0,61.66,8.169,69.829,18.314,69.829h63.373 C91.831,69.829,100,61.66,100,51.515C99.868,42.556,93.281,35.046,84.717,33.597z"></path>
</g><g transform="translate(-100 1139.4987092866754) rotate(0)">
  <animateTransform begin="-214.4320695831022s" repeatCount="indefinite" dur="83.33333333333333s" values="-100 1139.4987092866754;2300 1139.4987092866754" keyTimes="0;1" type="translate" attributeName="transform"></animateTransform>
  <path transform="scale(1)" fill="#bddeff" d="M84.717,33.597c0.791-2.503,1.186-5.138,1.186-7.773C85.903,11.594,74.308,0,60.079,0 c-9.881,0-18.445,5.534-22.793,13.702c-1.581-0.527-3.426-0.791-5.138-0.791c-9.486,0-17.128,7.642-17.128,17.128 c0,1.186,0.132,2.372,0.395,3.426C6.719,34.783,0,42.424,0,51.515C0,61.66,8.169,69.829,18.314,69.829h63.373 C91.831,69.829,100,61.66,100,51.515C99.868,42.556,93.281,35.046,84.717,33.597z"></path>
</g><g transform="translate(-100 1037.670731750153) rotate(0)">
  <animateTransform begin="-252.84555894469614s" repeatCount="indefinite" dur="83.33333333333333s" values="-100 1037.670731750153;2300 1037.670731750153" keyTimes="0;1" type="translate" attributeName="transform"></animateTransform>
  <path transform="scale(1)" fill="#bddeff" d="M84.717,33.597c0.791-2.503,1.186-5.138,1.186-7.773C85.903,11.594,74.308,0,60.079,0 c-9.881,0-18.445,5.534-22.793,13.702c-1.581-0.527-3.426-0.791-5.138-0.791c-9.486,0-17.128,7.642-17.128,17.128 c0,1.186,0.132,2.372,0.395,3.426C6.719,34.783,0,42.424,0,51.515C0,61.66,8.169,69.829,18.314,69.829h63.373 C91.831,69.829,100,61.66,100,51.515C99.868,42.556,93.281,35.046,84.717,33.597z"></path>
</g><g transform="translate(-100 669.0447253033038) rotate(0)">
  <animateTransform begin="-57.22110533656034s" repeatCount="indefinite" dur="83.33333333333333s" values="-100 669.0447253033038;2300 669.0447253033038" keyTimes="0;1" type="translate" attributeName="transform"></animateTransform>
  <path transform="scale(1)" fill="#bddeff" d="M84.717,33.597c0.791-2.503,1.186-5.138,1.186-7.773C85.903,11.594,74.308,0,60.079,0 c-9.881,0-18.445,5.534-22.793,13.702c-1.581-0.527-3.426-0.791-5.138-0.791c-9.486,0-17.128,7.642-17.128,17.128 c0,1.186,0.132,2.372,0.395,3.426C6.719,34.783,0,42.424,0,51.515C0,61.66,8.169,69.829,18.314,69.829h63.373 C91.831,69.829,100,61.66,100,51.515C99.868,42.556,93.281,35.046,84.717,33.597z"></path>
</g><g transform="translate(-100 271.6975083997561) rotate(0)">
  <animateTransform begin="-303.5480027957683s" repeatCount="indefinite" dur="83.33333333333333s" values="-100 271.6975083997561;2300 271.6975083997561" keyTimes="0;1" type="translate" attributeName="transform"></animateTransform>
  <path transform="scale(1)" fill="#bddeff" d="M84.717,33.597c0.791-2.503,1.186-5.138,1.186-7.773C85.903,11.594,74.308,0,60.079,0 c-9.881,0-18.445,5.534-22.793,13.702c-1.581-0.527-3.426-0.791-5.138-0.791c-9.486,0-17.128,7.642-17.128,17.128 c0,1.186,0.132,2.372,0.395,3.426C6.719,34.783,0,42.424,0,51.515C0,61.66,8.169,69.829,18.314,69.829h63.373 C91.831,69.829,100,61.66,100,51.515C99.868,42.556,93.281,35.046,84.717,33.597z"></path>
</g><g transform="translate(-100 550.5531633851552) rotate(0)">
  <animateTransform begin="-297.9442761661783s" repeatCount="indefinite" dur="83.33333333333333s" values="-100 550.5531633851552;2300 550.5531633851552" keyTimes="0;1" type="translate" attributeName="transform"></animateTransform>
  <path transform="scale(1)" fill="#bddeff" d="M84.717,33.597c0.791-2.503,1.186-5.138,1.186-7.773C85.903,11.594,74.308,0,60.079,0 c-9.881,0-18.445,5.534-22.793,13.702c-1.581-0.527-3.426-0.791-5.138-0.791c-9.486,0-17.128,7.642-17.128,17.128 c0,1.186,0.132,2.372,0.395,3.426C6.719,34.783,0,42.424,0,51.515C0,61.66,8.169,69.829,18.314,69.829h63.373 C91.831,69.829,100,61.66,100,51.515C99.868,42.556,93.281,35.046,84.717,33.597z"></path>
</g><g transform="translate(-100 45.90975371023746) rotate(0)">
  <animateTransform begin="-154.6398167424306s" repeatCount="indefinite" dur="83.33333333333333s" values="-100 45.90975371023746;2300 45.90975371023746" keyTimes="0;1" type="translate" attributeName="transform"></animateTransform>
  <path transform="scale(1)" fill="#bddeff" d="M84.717,33.597c0.791-2.503,1.186-5.138,1.186-7.773C85.903,11.594,74.308,0,60.079,0 c-9.881,0-18.445,5.534-22.793,13.702c-1.581-0.527-3.426-0.791-5.138-0.791c-9.486,0-17.128,7.642-17.128,17.128 c0,1.186,0.132,2.372,0.395,3.426C6.719,34.783,0,42.424,0,51.515C0,61.66,8.169,69.829,18.314,69.829h63.373 C91.831,69.829,100,61.66,100,51.515C99.868,42.556,93.281,35.046,84.717,33.597z"></path>
</g><g transform="translate(-100 1100.4678686792536) rotate(0)">
  <animateTransform begin="-165.47766271068755s" repeatCount="indefinite" dur="83.33333333333333s" values="-100 1100.4678686792536;2300 1100.4678686792536" keyTimes="0;1" type="translate" attributeName="transform"></animateTransform>
  <path transform="scale(1)" fill="#bddeff" d="M84.717,33.597c0.791-2.503,1.186-5.138,1.186-7.773C85.903,11.594,74.308,0,60.079,0 c-9.881,0-18.445,5.534-22.793,13.702c-1.581-0.527-3.426-0.791-5.138-0.791c-9.486,0-17.128,7.642-17.128,17.128 c0,1.186,0.132,2.372,0.395,3.426C6.719,34.783,0,42.424,0,51.515C0,61.66,8.169,69.829,18.314,69.829h63.373 C91.831,69.829,100,61.66,100,51.515C99.868,42.556,93.281,35.046,84.717,33.597z"></path>
</g><g transform="translate(-100 748.1977319789045) rotate(0)">
  <animateTransform begin="-74.02752282485265s" repeatCount="indefinite" dur="83.33333333333333s" values="-100 748.1977319789045;2300 748.1977319789045" keyTimes="0;1" type="translate" attributeName="transform"></animateTransform>
  <path transform="scale(1)" fill="#bddeff" d="M84.717,33.597c0.791-2.503,1.186-5.138,1.186-7.773C85.903,11.594,74.308,0,60.079,0 c-9.881,0-18.445,5.534-22.793,13.702c-1.581-0.527-3.426-0.791-5.138-0.791c-9.486,0-17.128,7.642-17.128,17.128 c0,1.186,0.132,2.372,0.395,3.426C6.719,34.783,0,42.424,0,51.515C0,61.66,8.169,69.829,18.314,69.829h63.373 C91.831,69.829,100,61.66,100,51.515C99.868,42.556,93.281,35.046,84.717,33.597z"></path>
</g><g transform="translate(-100 959.7595997783784) rotate(0)">
  <animateTransform begin="-26.63007907766625s" repeatCount="indefinite" dur="83.33333333333333s" values="-100 959.7595997783784;2300 959.7595997783784" keyTimes="0;1" type="translate" attributeName="transform"></animateTransform>
  <path transform="scale(1)" fill="#bddeff" d="M84.717,33.597c0.791-2.503,1.186-5.138,1.186-7.773C85.903,11.594,74.308,0,60.079,0 c-9.881,0-18.445,5.534-22.793,13.702c-1.581-0.527-3.426-0.791-5.138-0.791c-9.486,0-17.128,7.642-17.128,17.128 c0,1.186,0.132,2.372,0.395,3.426C6.719,34.783,0,42.424,0,51.515C0,61.66,8.169,69.829,18.314,69.829h63.373 C91.831,69.829,100,61.66,100,51.515C99.868,42.556,93.281,35.046,84.717,33.597z"></path>
</g><g transform="translate(-100 292.3835186735366) rotate(0)">
  <animateTransform begin="-294.7247729563064s" repeatCount="indefinite" dur="83.33333333333333s" values="-100 292.3835186735366;2300 292.3835186735366" keyTimes="0;1" type="translate" attributeName="transform"></animateTransform>
  <path transform="scale(1)" fill="#bddeff" d="M84.717,33.597c0.791-2.503,1.186-5.138,1.186-7.773C85.903,11.594,74.308,0,60.079,0 c-9.881,0-18.445,5.534-22.793,13.702c-1.581-0.527-3.426-0.791-5.138-0.791c-9.486,0-17.128,7.642-17.128,17.128 c0,1.186,0.132,2.372,0.395,3.426C6.719,34.783,0,42.424,0,51.515C0,61.66,8.169,69.829,18.314,69.829h63.373 C91.831,69.829,100,61.66,100,51.515C99.868,42.556,93.281,35.046,84.717,33.597z"></path>
</g><g></g></g><!-- [ldio] generated by https://loading.io --></svg>