<svg xmlns="http://www.w3.org/2000/svg" viewBox="0 0 1993 1268" preserveAspectRatio="xMidYMid" width="1993" height="1268" xmlns:xlink="http://www.w3.org/1999/xlink" style="shape-rendering:auto;display:block;background-position-x:0%;background-position-y:0%;background-size:auto;background-origin:padding-box;background-clip:border-box;background:scroll rgb(122, 206, 255) none  repeat;width:1993px;height:1268px;;animation:none"><g><g transform="matrix(1,0,0,1,227.17239379882812,1.5352582931518555)" style="transform:matrix(1, 0, 0, 1, 227.172, 1.53526);;animation:none"><path transform="matrix(0.550000011920929,0,0,0.550000011920929,0,0)" fill="#bddeff" d="M84.717,33.597c0.791-2.503,1.186-5.138,1.186-7.773C85.903,11.594,74.308,0,60.079,0 c-9.881,0-18.445,5.534-22.793,13.702c-1.581-0.527-3.426-0.791-5.138-0.791c-9.486,0-17.128,7.642-17.128,17.128 c0,1.186,0.132,2.372,0.395,3.426C6.719,34.783,0,42.424,0,51.515C0,61.66,8.169,69.829,18.314,69.829h63.373 C91.831,69.829,100,61.66,100,51.515C99.868,42.556,93.281,35.046,84.717,33.597z" style="fill:rgb(189, 222, 255);transform:matrix(0.55, 0, 0, 0.55, 0, 0);;animation:none"></path></g>
<g transform="matrix(1,0,0,1,264.7906799316406,80.0774917602539)" style="transform:matrix(1, 0, 0, 1, 264.791, 80.0775);;animation:none"><path transform="matrix(0.550000011920929,0,0,0.550000011920929,0,0)" fill="#bddeff" d="M84.717,33.597c0.791-2.503,1.186-5.138,1.186-7.773C85.903,11.594,74.308,0,60.079,0 c-9.881,0-18.445,5.534-22.793,13.702c-1.581-0.527-3.426-0.791-5.138-0.791c-9.486,0-17.128,7.642-17.128,17.128 c0,1.186,0.132,2.372,0.395,3.426C6.719,34.783,0,42.424,0,51.515C0,61.66,8.169,69.829,18.314,69.829h63.373 C91.831,69.829,100,61.66,100,51.515C99.868,42.556,93.281,35.046,84.717,33.597z" style="fill:rgb(189, 222, 255);transform:matrix(0.55, 0, 0, 0.55, 0, 0);;animation:none"></path></g>
<g transform="matrix(1,0,0,1,1883.8594970703125,592.2078857421875)" style="transform:matrix(1, 0, 0, 1, 1883.86, 592.208);;animation:none"><path transform="matrix(0.550000011920929,0,0,0.550000011920929,0,0)" fill="#bddeff" d="M84.717,33.597c0.791-2.503,1.186-5.138,1.186-7.773C85.903,11.594,74.308,0,60.079,0 c-9.881,0-18.445,5.534-22.793,13.702c-1.581-0.527-3.426-0.791-5.138-0.791c-9.486,0-17.128,7.642-17.128,17.128 c0,1.186,0.132,2.372,0.395,3.426C6.719,34.783,0,42.424,0,51.515C0,61.66,8.169,69.829,18.314,69.829h63.373 C91.831,69.829,100,61.66,100,51.515C99.868,42.556,93.281,35.046,84.717,33.597z" style="fill:rgb(189, 222, 255);transform:matrix(0.55, 0, 0, 0.55, 0, 0);;animation:none"></path></g>
<g transform="matrix(1,0,0,1,1106.1295166015625,1112.6085205078125)" style="transform:matrix(1, 0, 0, 1, 1106.13, 1112.61);;animation:none"><path transform="matrix(0.550000011920929,0,0,0.550000011920929,0,0)" fill="#bddeff" d="M84.717,33.597c0.791-2.503,1.186-5.138,1.186-7.773C85.903,11.594,74.308,0,60.079,0 c-9.881,0-18.445,5.534-22.793,13.702c-1.581-0.527-3.426-0.791-5.138-0.791c-9.486,0-17.128,7.642-17.128,17.128 c0,1.186,0.132,2.372,0.395,3.426C6.719,34.783,0,42.424,0,51.515C0,61.66,8.169,69.829,18.314,69.829h63.373 C91.831,69.829,100,61.66,100,51.515C99.868,42.556,93.281,35.046,84.717,33.597z" style="fill:rgb(189, 222, 255);transform:matrix(0.55, 0, 0, 0.55, 0, 0);;animation:none"></path></g>
<g transform="matrix(1,0,0,1,223.8428955078125,800.8871459960938)" style="transform:matrix(1, 0, 0, 1, 223.843, 800.887);;animation:none"><path transform="matrix(0.550000011920929,0,0,0.550000011920929,0,0)" fill="#bddeff" d="M84.717,33.597c0.791-2.503,1.186-5.138,1.186-7.773C85.903,11.594,74.308,0,60.079,0 c-9.881,0-18.445,5.534-22.793,13.702c-1.581-0.527-3.426-0.791-5.138-0.791c-9.486,0-17.128,7.642-17.128,17.128 c0,1.186,0.132,2.372,0.395,3.426C6.719,34.783,0,42.424,0,51.515C0,61.66,8.169,69.829,18.314,69.829h63.373 C91.831,69.829,100,61.66,100,51.515C99.868,42.556,93.281,35.046,84.717,33.597z" style="fill:rgb(189, 222, 255);transform:matrix(0.55, 0, 0, 0.55, 0, 0);;animation:none"></path></g>
<g transform="matrix(1,0,0,1,158.83782958984375,1213.3662109375)" style="transform:matrix(1, 0, 0, 1, 158.838, 1213.37);;animation:none"><path transform="matrix(0.550000011920929,0,0,0.550000011920929,0,0)" fill="#bddeff" d="M84.717,33.597c0.791-2.503,1.186-5.138,1.186-7.773C85.903,11.594,74.308,0,60.079,0 c-9.881,0-18.445,5.534-22.793,13.702c-1.581-0.527-3.426-0.791-5.138-0.791c-9.486,0-17.128,7.642-17.128,17.128 c0,1.186,0.132,2.372,0.395,3.426C6.719,34.783,0,42.424,0,51.515C0,61.66,8.169,69.829,18.314,69.829h63.373 C91.831,69.829,100,61.66,100,51.515C99.868,42.556,93.281,35.046,84.717,33.597z" style="fill:rgb(189, 222, 255);transform:matrix(0.55, 0, 0, 0.55, 0, 0);;animation:none"></path></g>
<g transform="matrix(1,0,0,1,908.8993530273438,1054.829833984375)" style="transform:matrix(1, 0, 0, 1, 908.899, 1054.83);;animation:none"><path transform="matrix(0.550000011920929,0,0,0.550000011920929,0,0)" fill="#bddeff" d="M84.717,33.597c0.791-2.503,1.186-5.138,1.186-7.773C85.903,11.594,74.308,0,60.079,0 c-9.881,0-18.445,5.534-22.793,13.702c-1.581-0.527-3.426-0.791-5.138-0.791c-9.486,0-17.128,7.642-17.128,17.128 c0,1.186,0.132,2.372,0.395,3.426C6.719,34.783,0,42.424,0,51.515C0,61.66,8.169,69.829,18.314,69.829h63.373 C91.831,69.829,100,61.66,100,51.515C99.868,42.556,93.281,35.046,84.717,33.597z" style="fill:rgb(189, 222, 255);transform:matrix(0.55, 0, 0, 0.55, 0, 0);;animation:none"></path></g>
<g transform="matrix(1,0,0,1,1636.412353515625,773.1356201171875)" style="transform:matrix(1, 0, 0, 1, 1636.41, 773.136);;animation:none"><path transform="matrix(0.550000011920929,0,0,0.550000011920929,0,0)" fill="#bddeff" d="M84.717,33.597c0.791-2.503,1.186-5.138,1.186-7.773C85.903,11.594,74.308,0,60.079,0 c-9.881,0-18.445,5.534-22.793,13.702c-1.581-0.527-3.426-0.791-5.138-0.791c-9.486,0-17.128,7.642-17.128,17.128 c0,1.186,0.132,2.372,0.395,3.426C6.719,34.783,0,42.424,0,51.515C0,61.66,8.169,69.829,18.314,69.829h63.373 C91.831,69.829,100,61.66,100,51.515C99.868,42.556,93.281,35.046,84.717,33.597z" style="fill:rgb(189, 222, 255);transform:matrix(0.55, 0, 0, 0.55, 0, 0);;animation:none"></path></g>
<g transform="matrix(1,0,0,1,367.387939453125,1240.018798828125)" style="transform:matrix(1, 0, 0, 1, 367.388, 1240.02);;animation:none"><path transform="matrix(0.550000011920929,0,0,0.550000011920929,0,0)" fill="#bddeff" d="M84.717,33.597c0.791-2.503,1.186-5.138,1.186-7.773C85.903,11.594,74.308,0,60.079,0 c-9.881,0-18.445,5.534-22.793,13.702c-1.581-0.527-3.426-0.791-5.138-0.791c-9.486,0-17.128,7.642-17.128,17.128 c0,1.186,0.132,2.372,0.395,3.426C6.719,34.783,0,42.424,0,51.515C0,61.66,8.169,69.829,18.314,69.829h63.373 C91.831,69.829,100,61.66,100,51.515C99.868,42.556,93.281,35.046,84.717,33.597z" style="fill:rgb(189, 222, 255);transform:matrix(0.55, 0, 0, 0.55, 0, 0);;animation:none"></path></g>
<g transform="matrix(1,0,0,1,87.72775268554688,1107.786865234375)" style="transform:matrix(1, 0, 0, 1, 87.7277, 1107.79);;animation:none"><path transform="matrix(0.550000011920929,0,0,0.550000011920929,0,0)" fill="#bddeff" d="M84.717,33.597c0.791-2.503,1.186-5.138,1.186-7.773C85.903,11.594,74.308,0,60.079,0 c-9.881,0-18.445,5.534-22.793,13.702c-1.581-0.527-3.426-0.791-5.138-0.791c-9.486,0-17.128,7.642-17.128,17.128 c0,1.186,0.132,2.372,0.395,3.426C6.719,34.783,0,42.424,0,51.515C0,61.66,8.169,69.829,18.314,69.829h63.373 C91.831,69.829,100,61.66,100,51.515C99.868,42.556,93.281,35.046,84.717,33.597z" style="fill:rgb(189, 222, 255);transform:matrix(0.55, 0, 0, 0.55, 0, 0);;animation:none"></path></g>
<g transform="matrix(1,0,0,1,434.0399169921875,932.3883056640625)" style="transform:matrix(1, 0, 0, 1, 434.04, 932.388);;animation:none"><path transform="matrix(0.550000011920929,0,0,0.550000011920929,0,0)" fill="#bddeff" d="M84.717,33.597c0.791-2.503,1.186-5.138,1.186-7.773C85.903,11.594,74.308,0,60.079,0 c-9.881,0-18.445,5.534-22.793,13.702c-1.581-0.527-3.426-0.791-5.138-0.791c-9.486,0-17.128,7.642-17.128,17.128 c0,1.186,0.132,2.372,0.395,3.426C6.719,34.783,0,42.424,0,51.515C0,61.66,8.169,69.829,18.314,69.829h63.373 C91.831,69.829,100,61.66,100,51.515C99.868,42.556,93.281,35.046,84.717,33.597z" style="fill:rgb(189, 222, 255);transform:matrix(0.55, 0, 0, 0.55, 0, 0);;animation:none"></path></g>
<g transform="matrix(1,0,0,1,1609.4034423828125,419.501220703125)" style="transform:matrix(1, 0, 0, 1, 1609.4, 419.501);;animation:none"><path transform="matrix(0.699999988079071,0,0,0.699999988079071,0,0)" fill="#ffffff" d="M84.717,33.597c0.791-2.503,1.186-5.138,1.186-7.773C85.903,11.594,74.308,0,60.079,0 c-9.881,0-18.445,5.534-22.793,13.702c-1.581-0.527-3.426-0.791-5.138-0.791c-9.486,0-17.128,7.642-17.128,17.128 c0,1.186,0.132,2.372,0.395,3.426C6.719,34.783,0,42.424,0,51.515C0,61.66,8.169,69.829,18.314,69.829h63.373 C91.831,69.829,100,61.66,100,51.515C99.868,42.556,93.281,35.046,84.717,33.597z" style="fill:rgb(255, 255, 255);transform:matrix(0.7, 0, 0, 0.7, 0, 0);;animation:none"></path></g>
<g transform="matrix(1,0,0,1,1523.6744384765625,320.46221923828125)" style="transform:matrix(1, 0, 0, 1, 1523.67, 320.462);;animation:none"><path transform="matrix(0.699999988079071,0,0,0.699999988079071,0,0)" fill="#ffffff" d="M84.717,33.597c0.791-2.503,1.186-5.138,1.186-7.773C85.903,11.594,74.308,0,60.079,0 c-9.881,0-18.445,5.534-22.793,13.702c-1.581-0.527-3.426-0.791-5.138-0.791c-9.486,0-17.128,7.642-17.128,17.128 c0,1.186,0.132,2.372,0.395,3.426C6.719,34.783,0,42.424,0,51.515C0,61.66,8.169,69.829,18.314,69.829h63.373 C91.831,69.829,100,61.66,100,51.515C99.868,42.556,93.281,35.046,84.717,33.597z" style="fill:rgb(255, 255, 255);transform:matrix(0.7, 0, 0, 0.7, 0, 0);;animation:none"></path></g>
<g transform="matrix(1,0,0,1,-43.348663330078125,1210.2623291015625)" style="transform:matrix(1, 0, 0, 1, -43.3487, 1210.26);;animation:none"><path transform="matrix(0.699999988079071,0,0,0.699999988079071,0,0)" fill="#ffffff" d="M84.717,33.597c0.791-2.503,1.186-5.138,1.186-7.773C85.903,11.594,74.308,0,60.079,0 c-9.881,0-18.445,5.534-22.793,13.702c-1.581-0.527-3.426-0.791-5.138-0.791c-9.486,0-17.128,7.642-17.128,17.128 c0,1.186,0.132,2.372,0.395,3.426C6.719,34.783,0,42.424,0,51.515C0,61.66,8.169,69.829,18.314,69.829h63.373 C91.831,69.829,100,61.66,100,51.515C99.868,42.556,93.281,35.046,84.717,33.597z" style="fill:rgb(255, 255, 255);transform:matrix(0.7, 0, 0, 0.7, 0, 0);;animation:none"></path></g>
<g transform="matrix(1,0,0,1,1730.15625,352.6604919433594)" style="transform:matrix(1, 0, 0, 1, 1730.16, 352.66);;animation:none"><path transform="matrix(0.699999988079071,0,0,0.699999988079071,0,0)" fill="#ffffff" d="M84.717,33.597c0.791-2.503,1.186-5.138,1.186-7.773C85.903,11.594,74.308,0,60.079,0 c-9.881,0-18.445,5.534-22.793,13.702c-1.581-0.527-3.426-0.791-5.138-0.791c-9.486,0-17.128,7.642-17.128,17.128 c0,1.186,0.132,2.372,0.395,3.426C6.719,34.783,0,42.424,0,51.515C0,61.66,8.169,69.829,18.314,69.829h63.373 C91.831,69.829,100,61.66,100,51.515C99.868,42.556,93.281,35.046,84.717,33.597z" style="fill:rgb(255, 255, 255);transform:matrix(0.7, 0, 0, 0.7, 0, 0);;animation:none"></path></g>
<g transform="matrix(1,0,0,1,556.5242309570312,121.63387298583984)" style="transform:matrix(1, 0, 0, 1, 556.524, 121.634);;animation:none"><path transform="matrix(0.699999988079071,0,0,0.699999988079071,0,0)" fill="#ffffff" d="M84.717,33.597c0.791-2.503,1.186-5.138,1.186-7.773C85.903,11.594,74.308,0,60.079,0 c-9.881,0-18.445,5.534-22.793,13.702c-1.581-0.527-3.426-0.791-5.138-0.791c-9.486,0-17.128,7.642-17.128,17.128 c0,1.186,0.132,2.372,0.395,3.426C6.719,34.783,0,42.424,0,51.515C0,61.66,8.169,69.829,18.314,69.829h63.373 C91.831,69.829,100,61.66,100,51.515C99.868,42.556,93.281,35.046,84.717,33.597z" style="fill:rgb(255, 255, 255);transform:matrix(0.7, 0, 0, 0.7, 0, 0);;animation:none"></path></g>
<g transform="matrix(1,0,0,1,1477.9871826171875,1109.4185791015625)" style="transform:matrix(1, 0, 0, 1, 1477.99, 1109.42);;animation:none"><path transform="matrix(0.699999988079071,0,0,0.699999988079071,0,0)" fill="#ffffff" d="M84.717,33.597c0.791-2.503,1.186-5.138,1.186-7.773C85.903,11.594,74.308,0,60.079,0 c-9.881,0-18.445,5.534-22.793,13.702c-1.581-0.527-3.426-0.791-5.138-0.791c-9.486,0-17.128,7.642-17.128,17.128 c0,1.186,0.132,2.372,0.395,3.426C6.719,34.783,0,42.424,0,51.515C0,61.66,8.169,69.829,18.314,69.829h63.373 C91.831,69.829,100,61.66,100,51.515C99.868,42.556,93.281,35.046,84.717,33.597z" style="fill:rgb(255, 255, 255);transform:matrix(0.7, 0, 0, 0.7, 0, 0);;animation:none"></path></g>
<g transform="matrix(1,0,0,1,960.7379150390625,229.82472229003906)" style="transform:matrix(1, 0, 0, 1, 960.738, 229.825);;animation:none"><path transform="matrix(0.699999988079071,0,0,0.699999988079071,0,0)" fill="#ffffff" d="M84.717,33.597c0.791-2.503,1.186-5.138,1.186-7.773C85.903,11.594,74.308,0,60.079,0 c-9.881,0-18.445,5.534-22.793,13.702c-1.581-0.527-3.426-0.791-5.138-0.791c-9.486,0-17.128,7.642-17.128,17.128 c0,1.186,0.132,2.372,0.395,3.426C6.719,34.783,0,42.424,0,51.515C0,61.66,8.169,69.829,18.314,69.829h63.373 C91.831,69.829,100,61.66,100,51.515C99.868,42.556,93.281,35.046,84.717,33.597z" style="fill:rgb(255, 255, 255);transform:matrix(0.7, 0, 0, 0.7, 0, 0);;animation:none"></path></g>
<g transform="matrix(1,0,0,1,1586.7105712890625,107.11953735351562)" style="transform:matrix(1, 0, 0, 1, 1586.71, 107.12);;animation:none"><path transform="matrix(0.699999988079071,0,0,0.699999988079071,0,0)" fill="#ffffff" d="M84.717,33.597c0.791-2.503,1.186-5.138,1.186-7.773C85.903,11.594,74.308,0,60.079,0 c-9.881,0-18.445,5.534-22.793,13.702c-1.581-0.527-3.426-0.791-5.138-0.791c-9.486,0-17.128,7.642-17.128,17.128 c0,1.186,0.132,2.372,0.395,3.426C6.719,34.783,0,42.424,0,51.515C0,61.66,8.169,69.829,18.314,69.829h63.373 C91.831,69.829,100,61.66,100,51.515C99.868,42.556,93.281,35.046,84.717,33.597z" style="fill:rgb(255, 255, 255);transform:matrix(0.7, 0, 0, 0.7, 0, 0);;animation:none"></path></g>
<g transform="matrix(1,0,0,1,588.5194702148438,484.4886779785156)" style="transform:matrix(1, 0, 0, 1, 588.519, 484.489);;animation:none"><path transform="matrix(0.699999988079071,0,0,0.699999988079071,0,0)" fill="#ffffff" d="M84.717,33.597c0.791-2.503,1.186-5.138,1.186-7.773C85.903,11.594,74.308,0,60.079,0 c-9.881,0-18.445,5.534-22.793,13.702c-1.581-0.527-3.426-0.791-5.138-0.791c-9.486,0-17.128,7.642-17.128,17.128 c0,1.186,0.132,2.372,0.395,3.426C6.719,34.783,0,42.424,0,51.515C0,61.66,8.169,69.829,18.314,69.829h63.373 C91.831,69.829,100,61.66,100,51.515C99.868,42.556,93.281,35.046,84.717,33.597z" style="fill:rgb(255, 255, 255);transform:matrix(0.7, 0, 0, 0.7, 0, 0);;animation:none"></path></g>
<g transform="matrix(1,0,0,1,621.4348754882812,1225.8360595703125)" style="transform:matrix(1, 0, 0, 1, 621.435, 1225.84);;animation:none"><path transform="matrix(0.699999988079071,0,0,0.699999988079071,0,0)" fill="#ffffff" d="M84.717,33.597c0.791-2.503,1.186-5.138,1.186-7.773C85.903,11.594,74.308,0,60.079,0 c-9.881,0-18.445,5.534-22.793,13.702c-1.581-0.527-3.426-0.791-5.138-0.791c-9.486,0-17.128,7.642-17.128,17.128 c0,1.186,0.132,2.372,0.395,3.426C6.719,34.783,0,42.424,0,51.515C0,61.66,8.169,69.829,18.314,69.829h63.373 C91.831,69.829,100,61.66,100,51.515C99.868,42.556,93.281,35.046,84.717,33.597z" style="fill:rgb(255, 255, 255);transform:matrix(0.7, 0, 0, 0.7, 0, 0);;animation:none"></path></g>
<g transform="matrix(1,0,0,1,1027.6710205078125,261.07061767578125)" style="transform:matrix(1, 0, 0, 1, 1027.67, 261.071);;animation:none"><path transform="matrix(0.699999988079071,0,0,0.699999988079071,0,0)" fill="#ffffff" d="M84.717,33.597c0.791-2.503,1.186-5.138,1.186-7.773C85.903,11.594,74.308,0,60.079,0 c-9.881,0-18.445,5.534-22.793,13.702c-1.581-0.527-3.426-0.791-5.138-0.791c-9.486,0-17.128,7.642-17.128,17.128 c0,1.186,0.132,2.372,0.395,3.426C6.719,34.783,0,42.424,0,51.515C0,61.66,8.169,69.829,18.314,69.829h63.373 C91.831,69.829,100,61.66,100,51.515C99.868,42.556,93.281,35.046,84.717,33.597z" style="fill:rgb(255, 255, 255);transform:matrix(0.7, 0, 0, 0.7, 0, 0);;animation:none"></path></g>
<g transform="matrix(1,0,0,1,705.7244873046875,393.5151672363281)" style="transform:matrix(1, 0, 0, 1, 705.724, 393.515);;animation:none"><path transform="matrix(0.8500000238418579,0,0,0.8500000238418579,0,0)" fill="#f1f2f3" d="M84.717,33.597c0.791-2.503,1.186-5.138,1.186-7.773C85.903,11.594,74.308,0,60.079,0 c-9.881,0-18.445,5.534-22.793,13.702c-1.581-0.527-3.426-0.791-5.138-0.791c-9.486,0-17.128,7.642-17.128,17.128 c0,1.186,0.132,2.372,0.395,3.426C6.719,34.783,0,42.424,0,51.515C0,61.66,8.169,69.829,18.314,69.829h63.373 C91.831,69.829,100,61.66,100,51.515C99.868,42.556,93.281,35.046,84.717,33.597z" style="fill:rgb(241, 242, 243);transform:matrix(0.85, 0, 0, 0.85, 0, 0);;animation:none"></path></g>
<g transform="matrix(1,0,0,1,1987.07763671875,1266.7210693359375)" style="transform:matrix(1, 0, 0, 1, 1987.08, 1266.72);;animation:none"><path transform="matrix(0.8500000238418579,0,0,0.8500000238418579,0,0)" fill="#f1f2f3" d="M84.717,33.597c0.791-2.503,1.186-5.138,1.186-7.773C85.903,11.594,74.308,0,60.079,0 c-9.881,0-18.445,5.534-22.793,13.702c-1.581-0.527-3.426-0.791-5.138-0.791c-9.486,0-17.128,7.642-17.128,17.128 c0,1.186,0.132,2.372,0.395,3.426C6.719,34.783,0,42.424,0,51.515C0,61.66,8.169,69.829,18.314,69.829h63.373 C91.831,69.829,100,61.66,100,51.515C99.868,42.556,93.281,35.046,84.717,33.597z" style="fill:rgb(241, 242, 243);transform:matrix(0.85, 0, 0, 0.85, 0, 0);;animation:none"></path></g>
<g transform="matrix(1,0,0,1,6.429237365722656,996.5001220703125)" style="transform:matrix(1, 0, 0, 1, 6.42924, 996.5);;animation:none"><path transform="matrix(0.8500000238418579,0,0,0.8500000238418579,0,0)" fill="#f1f2f3" d="M84.717,33.597c0.791-2.503,1.186-5.138,1.186-7.773C85.903,11.594,74.308,0,60.079,0 c-9.881,0-18.445,5.534-22.793,13.702c-1.581-0.527-3.426-0.791-5.138-0.791c-9.486,0-17.128,7.642-17.128,17.128 c0,1.186,0.132,2.372,0.395,3.426C6.719,34.783,0,42.424,0,51.515C0,61.66,8.169,69.829,18.314,69.829h63.373 C91.831,69.829,100,61.66,100,51.515C99.868,42.556,93.281,35.046,84.717,33.597z" style="fill:rgb(241, 242, 243);transform:matrix(0.85, 0, 0, 0.85, 0, 0);;animation:none"></path></g>
<g transform="matrix(1,0,0,1,1988.70849609375,923.1690063476562)" style="transform:matrix(1, 0, 0, 1, 1988.71, 923.169);;animation:none"><path transform="matrix(0.8500000238418579,0,0,0.8500000238418579,0,0)" fill="#f1f2f3" d="M84.717,33.597c0.791-2.503,1.186-5.138,1.186-7.773C85.903,11.594,74.308,0,60.079,0 c-9.881,0-18.445,5.534-22.793,13.702c-1.581-0.527-3.426-0.791-5.138-0.791c-9.486,0-17.128,7.642-17.128,17.128 c0,1.186,0.132,2.372,0.395,3.426C6.719,34.783,0,42.424,0,51.515C0,61.66,8.169,69.829,18.314,69.829h63.373 C91.831,69.829,100,61.66,100,51.515C99.868,42.556,93.281,35.046,84.717,33.597z" style="fill:rgb(241, 242, 243);transform:matrix(0.85, 0, 0, 0.85, 0, 0);;animation:none"></path></g>
<g transform="matrix(1,0,0,1,499.57183837890625,329.9197082519531)" style="transform:matrix(1, 0, 0, 1, 499.572, 329.92);;animation:none"><path transform="matrix(0.8500000238418579,0,0,0.8500000238418579,0,0)" fill="#f1f2f3" d="M84.717,33.597c0.791-2.503,1.186-5.138,1.186-7.773C85.903,11.594,74.308,0,60.079,0 c-9.881,0-18.445,5.534-22.793,13.702c-1.581-0.527-3.426-0.791-5.138-0.791c-9.486,0-17.128,7.642-17.128,17.128 c0,1.186,0.132,2.372,0.395,3.426C6.719,34.783,0,42.424,0,51.515C0,61.66,8.169,69.829,18.314,69.829h63.373 C91.831,69.829,100,61.66,100,51.515C99.868,42.556,93.281,35.046,84.717,33.597z" style="fill:rgb(241, 242, 243);transform:matrix(0.85, 0, 0, 0.85, 0, 0);;animation:none"></path></g>
<g transform="matrix(1,0,0,1,1810.589599609375,220.75306701660156)" style="transform:matrix(1, 0, 0, 1, 1810.59, 220.753);;animation:none"><path transform="matrix(0.8500000238418579,0,0,0.8500000238418579,0,0)" fill="#f1f2f3" d="M84.717,33.597c0.791-2.503,1.186-5.138,1.186-7.773C85.903,11.594,74.308,0,60.079,0 c-9.881,0-18.445,5.534-22.793,13.702c-1.581-0.527-3.426-0.791-5.138-0.791c-9.486,0-17.128,7.642-17.128,17.128 c0,1.186,0.132,2.372,0.395,3.426C6.719,34.783,0,42.424,0,51.515C0,61.66,8.169,69.829,18.314,69.829h63.373 C91.831,69.829,100,61.66,100,51.515C99.868,42.556,93.281,35.046,84.717,33.597z" style="fill:rgb(241, 242, 243);transform:matrix(0.85, 0, 0, 0.85, 0, 0);;animation:none"></path></g>
<g transform="matrix(1,0,0,1,1233.1314697265625,671.5933227539062)" style="transform:matrix(1, 0, 0, 1, 1233.13, 671.593);;animation:none"><path transform="matrix(0.8500000238418579,0,0,0.8500000238418579,0,0)" fill="#f1f2f3" d="M84.717,33.597c0.791-2.503,1.186-5.138,1.186-7.773C85.903,11.594,74.308,0,60.079,0 c-9.881,0-18.445,5.534-22.793,13.702c-1.581-0.527-3.426-0.791-5.138-0.791c-9.486,0-17.128,7.642-17.128,17.128 c0,1.186,0.132,2.372,0.395,3.426C6.719,34.783,0,42.424,0,51.515C0,61.66,8.169,69.829,18.314,69.829h63.373 C91.831,69.829,100,61.66,100,51.515C99.868,42.556,93.281,35.046,84.717,33.597z" style="fill:rgb(241, 242, 243);transform:matrix(0.85, 0, 0, 0.85, 0, 0);;animation:none"></path></g>
<g transform="matrix(1,0,0,1,973.320556640625,607.4190673828125)" style="transform:matrix(1, 0, 0, 1, 973.32, 607.419);;animation:none"><path transform="matrix(0.8500000238418579,0,0,0.8500000238418579,0,0)" fill="#f1f2f3" d="M84.717,33.597c0.791-2.503,1.186-5.138,1.186-7.773C85.903,11.594,74.308,0,60.079,0 c-9.881,0-18.445,5.534-22.793,13.702c-1.581-0.527-3.426-0.791-5.138-0.791c-9.486,0-17.128,7.642-17.128,17.128 c0,1.186,0.132,2.372,0.395,3.426C6.719,34.783,0,42.424,0,51.515C0,61.66,8.169,69.829,18.314,69.829h63.373 C91.831,69.829,100,61.66,100,51.515C99.868,42.556,93.281,35.046,84.717,33.597z" style="fill:rgb(241, 242, 243);transform:matrix(0.85, 0, 0, 0.85, 0, 0);;animation:none"></path></g>
<g transform="matrix(1,0,0,1,579.1917724609375,472.4449462890625)" style="transform:matrix(1, 0, 0, 1, 579.192, 472.445);;animation:none"><path transform="matrix(0.8500000238418579,0,0,0.8500000238418579,0,0)" fill="#f1f2f3" d="M84.717,33.597c0.791-2.503,1.186-5.138,1.186-7.773C85.903,11.594,74.308,0,60.079,0 c-9.881,0-18.445,5.534-22.793,13.702c-1.581-0.527-3.426-0.791-5.138-0.791c-9.486,0-17.128,7.642-17.128,17.128 c0,1.186,0.132,2.372,0.395,3.426C6.719,34.783,0,42.424,0,51.515C0,61.66,8.169,69.829,18.314,69.829h63.373 C91.831,69.829,100,61.66,100,51.515C99.868,42.556,93.281,35.046,84.717,33.597z" style="fill:rgb(241, 242, 243);transform:matrix(0.85, 0, 0, 0.85, 0, 0);;animation:none"></path></g>
<g transform="matrix(1,0,0,1,39.11360168457031,884.400634765625)" style="transform:matrix(1, 0, 0, 1, 39.1136, 884.401);;animation:none"><path transform="matrix(0.8500000238418579,0,0,0.8500000238418579,0,0)" fill="#f1f2f3" d="M84.717,33.597c0.791-2.503,1.186-5.138,1.186-7.773C85.903,11.594,74.308,0,60.079,0 c-9.881,0-18.445,5.534-22.793,13.702c-1.581-0.527-3.426-0.791-5.138-0.791c-9.486,0-17.128,7.642-17.128,17.128 c0,1.186,0.132,2.372,0.395,3.426C6.719,34.783,0,42.424,0,51.515C0,61.66,8.169,69.829,18.314,69.829h63.373 C91.831,69.829,100,61.66,100,51.515C99.868,42.556,93.281,35.046,84.717,33.597z" style="fill:rgb(241, 242, 243);transform:matrix(0.85, 0, 0, 0.85, 0, 0);;animation:none"></path></g>
<g transform="matrix(1,0,0,1,1422.4251708984375,787.4784545898438)" style="transform:matrix(1, 0, 0, 1, 1422.43, 787.478);;animation:none"><path transform="matrix(0.8500000238418579,0,0,0.8500000238418579,0,0)" fill="#f1f2f3" d="M84.717,33.597c0.791-2.503,1.186-5.138,1.186-7.773C85.903,11.594,74.308,0,60.079,0 c-9.881,0-18.445,5.534-22.793,13.702c-1.581-0.527-3.426-0.791-5.138-0.791c-9.486,0-17.128,7.642-17.128,17.128 c0,1.186,0.132,2.372,0.395,3.426C6.719,34.783,0,42.424,0,51.515C0,61.66,8.169,69.829,18.314,69.829h63.373 C91.831,69.829,100,61.66,100,51.515C99.868,42.556,93.281,35.046,84.717,33.597z" style="fill:rgb(241, 242, 243);transform:matrix(0.85, 0, 0, 0.85, 0, 0);;animation:none"></path></g>
<g transform="matrix(1,0,0,1,1463.716552734375,459.16943359375)" style="transform:matrix(1, 0, 0, 1, 1463.72, 459.169);;animation:none"><path transform="matrix(1,0,0,1,0,0)" fill="#bddeff" d="M84.717,33.597c0.791-2.503,1.186-5.138,1.186-7.773C85.903,11.594,74.308,0,60.079,0 c-9.881,0-18.445,5.534-22.793,13.702c-1.581-0.527-3.426-0.791-5.138-0.791c-9.486,0-17.128,7.642-17.128,17.128 c0,1.186,0.132,2.372,0.395,3.426C6.719,34.783,0,42.424,0,51.515C0,61.66,8.169,69.829,18.314,69.829h63.373 C91.831,69.829,100,61.66,100,51.515C99.868,42.556,93.281,35.046,84.717,33.597z" style="fill:rgb(189, 222, 255);transform:matrix(1, 0, 0, 1, 0, 0);;animation:none"></path></g>
<g transform="matrix(1,0,0,1,499.1024169921875,894.0348510742188)" style="transform:matrix(1, 0, 0, 1, 499.102, 894.035);;animation:none"><path transform="matrix(1,0,0,1,0,0)" fill="#bddeff" d="M84.717,33.597c0.791-2.503,1.186-5.138,1.186-7.773C85.903,11.594,74.308,0,60.079,0 c-9.881,0-18.445,5.534-22.793,13.702c-1.581-0.527-3.426-0.791-5.138-0.791c-9.486,0-17.128,7.642-17.128,17.128 c0,1.186,0.132,2.372,0.395,3.426C6.719,34.783,0,42.424,0,51.515C0,61.66,8.169,69.829,18.314,69.829h63.373 C91.831,69.829,100,61.66,100,51.515C99.868,42.556,93.281,35.046,84.717,33.597z" style="fill:rgb(189, 222, 255);transform:matrix(1, 0, 0, 1, 0, 0);;animation:none"></path></g>
<g transform="matrix(1,0,0,1,1170.803955078125,871.1527099609375)" style="transform:matrix(1, 0, 0, 1, 1170.8, 871.153);;animation:none"><path transform="matrix(1,0,0,1,0,0)" fill="#bddeff" d="M84.717,33.597c0.791-2.503,1.186-5.138,1.186-7.773C85.903,11.594,74.308,0,60.079,0 c-9.881,0-18.445,5.534-22.793,13.702c-1.581-0.527-3.426-0.791-5.138-0.791c-9.486,0-17.128,7.642-17.128,17.128 c0,1.186,0.132,2.372,0.395,3.426C6.719,34.783,0,42.424,0,51.515C0,61.66,8.169,69.829,18.314,69.829h63.373 C91.831,69.829,100,61.66,100,51.515C99.868,42.556,93.281,35.046,84.717,33.597z" style="fill:rgb(189, 222, 255);transform:matrix(1, 0, 0, 1, 0, 0);;animation:none"></path></g>
<g transform="matrix(1,0,0,1,1057.1087646484375,958.6329956054688)" style="transform:matrix(1, 0, 0, 1, 1057.11, 958.633);;animation:none"><path transform="matrix(1,0,0,1,0,0)" fill="#bddeff" d="M84.717,33.597c0.791-2.503,1.186-5.138,1.186-7.773C85.903,11.594,74.308,0,60.079,0 c-9.881,0-18.445,5.534-22.793,13.702c-1.581-0.527-3.426-0.791-5.138-0.791c-9.486,0-17.128,7.642-17.128,17.128 c0,1.186,0.132,2.372,0.395,3.426C6.719,34.783,0,42.424,0,51.515C0,61.66,8.169,69.829,18.314,69.829h63.373 C91.831,69.829,100,61.66,100,51.515C99.868,42.556,93.281,35.046,84.717,33.597z" style="fill:rgb(189, 222, 255);transform:matrix(1, 0, 0, 1, 0, 0);;animation:none"></path></g>
<g transform="matrix(1,0,0,1,1313.54931640625,1095.886474609375)" style="transform:matrix(1, 0, 0, 1, 1313.55, 1095.89);;animation:none"><path transform="matrix(1,0,0,1,0,0)" fill="#bddeff" d="M84.717,33.597c0.791-2.503,1.186-5.138,1.186-7.773C85.903,11.594,74.308,0,60.079,0 c-9.881,0-18.445,5.534-22.793,13.702c-1.581-0.527-3.426-0.791-5.138-0.791c-9.486,0-17.128,7.642-17.128,17.128 c0,1.186,0.132,2.372,0.395,3.426C6.719,34.783,0,42.424,0,51.515C0,61.66,8.169,69.829,18.314,69.829h63.373 C91.831,69.829,100,61.66,100,51.515C99.868,42.556,93.281,35.046,84.717,33.597z" style="fill:rgb(189, 222, 255);transform:matrix(1, 0, 0, 1, 0, 0);;animation:none"></path></g>
<g transform="matrix(1,0,0,1,775.159912109375,1074.0787353515625)" style="transform:matrix(1, 0, 0, 1, 775.16, 1074.08);;animation:none"><path transform="matrix(1,0,0,1,0,0)" fill="#bddeff" d="M84.717,33.597c0.791-2.503,1.186-5.138,1.186-7.773C85.903,11.594,74.308,0,60.079,0 c-9.881,0-18.445,5.534-22.793,13.702c-1.581-0.527-3.426-0.791-5.138-0.791c-9.486,0-17.128,7.642-17.128,17.128 c0,1.186,0.132,2.372,0.395,3.426C6.719,34.783,0,42.424,0,51.515C0,61.66,8.169,69.829,18.314,69.829h63.373 C91.831,69.829,100,61.66,100,51.515C99.868,42.556,93.281,35.046,84.717,33.597z" style="fill:rgb(189, 222, 255);transform:matrix(1, 0, 0, 1, 0, 0);;animation:none"></path></g>
<g transform="matrix(1,0,0,1,372.6035461425781,3.2314352989196777)" style="transform:matrix(1, 0, 0, 1, 372.604, 3.23144);;animation:none"><path transform="matrix(1,0,0,1,0,0)" fill="#bddeff" d="M84.717,33.597c0.791-2.503,1.186-5.138,1.186-7.773C85.903,11.594,74.308,0,60.079,0 c-9.881,0-18.445,5.534-22.793,13.702c-1.581-0.527-3.426-0.791-5.138-0.791c-9.486,0-17.128,7.642-17.128,17.128 c0,1.186,0.132,2.372,0.395,3.426C6.719,34.783,0,42.424,0,51.515C0,61.66,8.169,69.829,18.314,69.829h63.373 C91.831,69.829,100,61.66,100,51.515C99.868,42.556,93.281,35.046,84.717,33.597z" style="fill:rgb(189, 222, 255);transform:matrix(1, 0, 0, 1, 0, 0);;animation:none"></path></g>
<g transform="matrix(1,0,0,1,731.461181640625,382.531005859375)" style="transform:matrix(1, 0, 0, 1, 731.461, 382.531);;animation:none"><path transform="matrix(1,0,0,1,0,0)" fill="#bddeff" d="M84.717,33.597c0.791-2.503,1.186-5.138,1.186-7.773C85.903,11.594,74.308,0,60.079,0 c-9.881,0-18.445,5.534-22.793,13.702c-1.581-0.527-3.426-0.791-5.138-0.791c-9.486,0-17.128,7.642-17.128,17.128 c0,1.186,0.132,2.372,0.395,3.426C6.719,34.783,0,42.424,0,51.515C0,61.66,8.169,69.829,18.314,69.829h63.373 C91.831,69.829,100,61.66,100,51.515C99.868,42.556,93.281,35.046,84.717,33.597z" style="fill:rgb(189, 222, 255);transform:matrix(1, 0, 0, 1, 0, 0);;animation:none"></path></g>
<g transform="matrix(1,0,0,1,1663.1654052734375,431.4708251953125)" style="transform:matrix(1, 0, 0, 1, 1663.17, 431.471);;animation:none"><path transform="matrix(1,0,0,1,0,0)" fill="#bddeff" d="M84.717,33.597c0.791-2.503,1.186-5.138,1.186-7.773C85.903,11.594,74.308,0,60.079,0 c-9.881,0-18.445,5.534-22.793,13.702c-1.581-0.527-3.426-0.791-5.138-0.791c-9.486,0-17.128,7.642-17.128,17.128 c0,1.186,0.132,2.372,0.395,3.426C6.719,34.783,0,42.424,0,51.515C0,61.66,8.169,69.829,18.314,69.829h63.373 C91.831,69.829,100,61.66,100,51.515C99.868,42.556,93.281,35.046,84.717,33.597z" style="fill:rgb(189, 222, 255);transform:matrix(1, 0, 0, 1, 0, 0);;animation:none"></path></g>
<g transform="matrix(1,0,0,1,538.6731567382812,1101.768798828125)" style="transform:matrix(1, 0, 0, 1, 538.673, 1101.77);;animation:none"><path transform="matrix(1,0,0,1,0,0)" fill="#bddeff" d="M84.717,33.597c0.791-2.503,1.186-5.138,1.186-7.773C85.903,11.594,74.308,0,60.079,0 c-9.881,0-18.445,5.534-22.793,13.702c-1.581-0.527-3.426-0.791-5.138-0.791c-9.486,0-17.128,7.642-17.128,17.128 c0,1.186,0.132,2.372,0.395,3.426C6.719,34.783,0,42.424,0,51.515C0,61.66,8.169,69.829,18.314,69.829h63.373 C91.831,69.829,100,61.66,100,51.515C99.868,42.556,93.281,35.046,84.717,33.597z" style="fill:rgb(189, 222, 255);transform:matrix(1, 0, 0, 1, 0, 0);;animation:none"></path></g>
<g transform="matrix(1,0,0,1,-6.7842254638671875,78.55850982666016)" style="transform:matrix(1, 0, 0, 1, -6.78423, 78.5585);;animation:none"><path transform="matrix(1,0,0,1,0,0)" fill="#bddeff" d="M84.717,33.597c0.791-2.503,1.186-5.138,1.186-7.773C85.903,11.594,74.308,0,60.079,0 c-9.881,0-18.445,5.534-22.793,13.702c-1.581-0.527-3.426-0.791-5.138-0.791c-9.486,0-17.128,7.642-17.128,17.128 c0,1.186,0.132,2.372,0.395,3.426C6.719,34.783,0,42.424,0,51.515C0,61.66,8.169,69.829,18.314,69.829h63.373 C91.831,69.829,100,61.66,100,51.515C99.868,42.556,93.281,35.046,84.717,33.597z" style="fill:rgb(189, 222, 255);transform:matrix(1, 0, 0, 1, 0, 0);;animation:none"></path></g>
<g transform="matrix(1,0,0,1,253.72772216796875,1206.19580078125)" style="transform:matrix(1, 0, 0, 1, 253.728, 1206.2);;animation:none"><path transform="matrix(1,0,0,1,0,0)" fill="#bddeff" d="M84.717,33.597c0.791-2.503,1.186-5.138,1.186-7.773C85.903,11.594,74.308,0,60.079,0 c-9.881,0-18.445,5.534-22.793,13.702c-1.581-0.527-3.426-0.791-5.138-0.791c-9.486,0-17.128,7.642-17.128,17.128 c0,1.186,0.132,2.372,0.395,3.426C6.719,34.783,0,42.424,0,51.515C0,61.66,8.169,69.829,18.314,69.829h63.373 C91.831,69.829,100,61.66,100,51.515C99.868,42.556,93.281,35.046,84.717,33.597z" style="fill:rgb(189, 222, 255);transform:matrix(1, 0, 0, 1, 0, 0);;animation:none"></path></g>
<g></g></g><!-- [ldio] generated by https://loading.io --></svg>